<svg width="266" height="28" viewBox="0 0 266 28" fill="none" xmlns="http://www.w3.org/2000/svg">
<path d="M4.43724 21.9217V13.5762H13.0619V10.0646H4.43724V4.37846H13.8847V0.719949H0V21.9217H4.43724ZM16.4684 21.9217H20.7587V13.1207C20.7587 10.9021 21.9929 9.60911 24.1087 9.60911C24.7258 9.60911 25.3135 9.71196 25.6661 9.85889V6.08283C25.3723 5.99468 24.9462 5.92121 24.4466 5.92121C22.5953 5.92121 21.2583 7.00848 20.6999 9.00671H20.6118V6.17099H16.4684V21.9217ZM34.2885 9.00671C36.1986 9.00671 37.5063 10.3878 37.5944 12.4008H30.9092C31.0561 10.4319 32.4078 9.00671 34.2885 9.00671ZM37.6532 17.1025C37.2565 18.3073 36.0517 19.086 34.4795 19.086C32.2903 19.086 30.8651 17.5432 30.8651 15.2952V15.0308H41.7231V13.7231C41.7231 8.93324 38.8286 5.83306 34.2445 5.83306C29.5868 5.83306 26.6483 9.09486 26.6483 14.1198C26.6483 19.1595 29.5574 22.2596 34.4061 22.2596C38.2997 22.2596 41.1207 20.188 41.5909 17.1025H37.6532ZM51.3299 9.00671C53.24 9.00671 54.5477 10.3878 54.6358 12.4008H47.9506C48.0975 10.4319 49.4493 9.00671 51.3299 9.00671ZM54.6946 17.1025C54.2979 18.3073 53.0931 19.086 51.521 19.086C49.3317 19.086 47.9065 17.5432 47.9065 15.2952V15.0308H58.7645V13.7231C58.7645 8.93324 55.87 5.83306 51.2859 5.83306C46.6282 5.83306 43.6897 9.09486 43.6897 14.1198C43.6897 19.1595 46.5989 22.2596 51.4475 22.2596C55.3411 22.2596 58.1621 20.188 58.6323 17.1025H54.6946ZM73.4381 22.1715C75.7596 22.1715 77.5815 20.952 78.3455 19.2182H78.419V21.9217H82.6505V0.719949H78.3602V8.87447H78.2721C77.508 7.12602 75.7449 5.92121 73.4675 5.92121C69.5151 5.92121 67.0173 9.0214 67.0173 14.017C67.0173 19.0566 69.5004 22.1715 73.4381 22.1715ZM74.8927 9.35934C77.0232 9.35934 78.3896 11.1812 78.3896 14.0464C78.3896 16.9261 77.0232 18.7187 74.8927 18.7187C72.7329 18.7187 71.4105 16.9408 71.4105 14.0464C71.4105 11.1666 72.7329 9.35934 74.8927 9.35934ZM92.9039 9.00671C94.8139 9.00671 96.1216 10.3878 96.2097 12.4008H89.5245C89.6714 10.4319 91.0232 9.00671 92.9039 9.00671ZM96.2685 17.1025C95.8718 18.3073 94.667 19.086 93.0949 19.086C90.9056 19.086 89.4804 17.5432 89.4804 15.2952V15.0308H100.338V13.7231C100.338 8.93324 97.4439 5.83306 92.8598 5.83306C88.2021 5.83306 85.2636 9.09486 85.2636 14.1198C85.2636 19.1595 88.1728 22.2596 93.0214 22.2596C96.915 22.2596 99.736 20.188 100.206 17.1025H96.2685ZM102.981 21.9217H107.271V0.719949H102.981V21.9217ZM110.56 21.9217H114.85V6.17099H110.56V21.9217ZM112.705 4.43724C113.998 4.43724 114.997 3.45282 114.997 2.21862C114.997 0.969727 113.998 0 112.705 0C111.412 0 110.413 0.969727 110.413 2.21862C110.413 3.45282 111.412 4.43724 112.705 4.43724ZM132.435 6.17099H127.954L124.692 18.131H124.604L121.328 6.17099H116.729L122.18 21.9217H127.028L132.435 6.17099ZM140.882 9.00671C142.792 9.00671 144.099 10.3878 144.187 12.4008H137.502C137.649 10.4319 139.001 9.00671 140.882 9.00671ZM144.246 17.1025C143.85 18.3073 142.645 19.086 141.073 19.086C138.883 19.086 137.458 17.5432 137.458 15.2952V15.0308H148.316V13.7231C148.316 8.93324 145.422 5.83306 140.837 5.83306C136.18 5.83306 133.241 9.09486 133.241 14.1198C133.241 19.1595 136.15 22.2596 140.999 22.2596C144.893 22.2596 147.714 20.188 148.184 17.1025H144.246ZM150.856 21.9217H155.146V13.1207C155.146 10.9021 156.38 9.60911 158.496 9.60911C159.113 9.60911 159.701 9.71196 160.053 9.85889V6.08283C159.76 5.99468 159.333 5.92121 158.834 5.92121C156.983 5.92121 155.646 7.00848 155.087 9.00671H154.999V6.17099H150.856V21.9217ZM164.15 27.7548C168.176 27.7548 170.145 26.3149 171.497 22.2743L176.919 6.17099H172.393L169.043 18.4836H168.97L165.62 6.17099H160.903L166.384 21.9364C166.413 21.9952 166.252 22.627 166.252 22.6857C165.958 23.9346 165.179 24.4342 163.607 24.4342C163.445 24.4342 162.666 24.4342 162.534 24.4048V27.7107C162.666 27.7401 164.004 27.7548 164.15 27.7548ZM192.312 22.2596C197.073 22.2596 200.114 19.2182 200.114 14.0317C200.114 8.91855 197.028 5.83306 192.312 5.83306C187.596 5.83306 184.51 8.93324 184.51 14.0317C184.51 19.2035 187.552 22.2596 192.312 22.2596ZM192.312 18.9831C190.196 18.9831 188.859 17.2053 188.859 14.0464C188.859 10.9168 190.226 9.10956 192.312 9.10956C194.398 9.10956 195.75 10.9168 195.75 14.0464C195.75 17.2053 194.413 18.9831 192.312 18.9831ZM203.8 21.9217H208.09V9.40341H211.117V6.24445H207.987V5.20126C207.987 4.08461 208.604 3.46751 210.015 3.46751C210.441 3.46751 210.867 3.49689 211.175 3.55567V0.719949C210.676 0.617099 209.78 0.528942 208.986 0.528942C205.254 0.528942 203.8 1.96884 203.8 5.05434V6.24445H201.654V9.40341H203.8V21.9217ZM214.846 21.9217H219.137V9.40341H222.163V6.24445H219.034V5.20126C219.034 4.08461 219.651 3.46751 221.061 3.46751C221.488 3.46751 221.914 3.49689 222.222 3.55567V0.719949C221.723 0.617099 220.826 0.528942 220.033 0.528942C216.301 0.528942 214.846 1.96884 214.846 5.05434V6.24445H212.701V9.40341H214.846V21.9217ZM231.374 9.00671C233.284 9.00671 234.591 10.3878 234.679 12.4008H227.994C228.141 10.4319 229.493 9.00671 231.374 9.00671ZM234.738 17.1025C234.341 18.3073 233.137 19.086 231.565 19.086C229.375 19.086 227.95 17.5432 227.95 15.2952V15.0308H238.808V13.7231C238.808 8.93324 235.914 5.83306 231.329 5.83306C226.672 5.83306 223.733 9.09486 223.733 14.1198C223.733 19.1595 226.642 22.2596 231.491 22.2596C235.385 22.2596 238.206 20.188 238.676 17.1025H234.738ZM241.348 21.9217H245.638V13.1207C245.638 10.9021 246.872 9.60911 248.988 9.60911C249.605 9.60911 250.193 9.71196 250.545 9.85889V6.08283C250.252 5.99468 249.825 5.92121 249.326 5.92121C247.475 5.92121 246.138 7.00848 245.579 9.00671H245.491V6.17099H241.348V21.9217ZM252.365 10.7992C252.365 13.1207 253.893 14.6781 256.876 15.354L259.785 16.0005C261.195 16.3384 261.724 16.7792 261.724 17.5726C261.724 18.6011 260.74 19.2476 259.109 19.2476C257.405 19.2476 256.361 18.4836 256.156 17.1612H251.968C252.203 20.232 254.789 22.2596 258.992 22.2596C263.15 22.2596 266 20.2173 266 17.1172C266 14.7663 264.722 13.5174 261.563 12.8122L258.551 12.1657C257.17 11.8424 256.494 11.3135 256.494 10.5348C256.494 9.52096 257.463 8.84509 258.947 8.84509C260.534 8.84509 261.548 9.62381 261.636 10.8874H265.589C265.53 7.83128 262.959 5.83306 259.006 5.83306C254.966 5.83306 252.365 7.8019 252.365 10.7992Z" fill="#010F07"/>
</svg>
