<svg width="233" height="28" viewBox="0 0 233 28" fill="none" xmlns="http://www.w3.org/2000/svg">
<path d="M15.2419 21.9296H19.96L12.5816 0.720208H7.36376L0 21.9296H4.55642L6.17321 16.7852H13.6252L15.2419 21.9296ZM9.84774 4.77689H9.95063L12.6698 13.4635H7.12859L9.84774 4.77689ZM22.1919 21.9296H26.4837V0.720208H22.1919V21.9296ZM29.8032 21.9296H34.0951V0.720208H29.8032V21.9296ZM45.6139 27.7647C49.6411 27.7647 51.6107 26.3243 52.9629 22.2823L58.3865 6.17321H53.8595L50.5083 18.4902H50.4348L47.0837 6.17321H42.3656L47.848 21.9443C47.8774 22.0031 47.7157 22.6351 47.7157 22.6939C47.4217 23.9432 46.6427 24.443 45.07 24.443C44.9084 24.443 44.1294 24.443 43.9971 24.4136V27.7206C44.1294 27.75 45.4669 27.7647 45.6139 27.7647ZM67.0561 22.2676C71.8183 22.2676 74.8608 19.2251 74.8608 14.0367C74.8608 8.92176 71.7742 5.83515 67.0561 5.83515C62.338 5.83515 59.2514 8.93646 59.2514 14.0367C59.2514 19.2104 62.2939 22.2676 67.0561 22.2676ZM67.0561 18.99C64.9396 18.99 63.6021 17.2115 63.6021 14.0514C63.6021 10.9207 64.969 9.11283 67.0561 9.11283C69.1433 9.11283 70.4955 10.9207 70.4955 14.0514C70.4955 17.2115 69.158 18.99 67.0561 18.99ZM91.9525 6.17321H87.6606V15.1979C87.6606 17.285 86.4701 18.6519 84.5593 18.6519C82.6633 18.6519 81.6197 17.5349 81.6197 15.433V6.17321H77.3278V16.3296C77.3278 20.0041 79.5914 22.2236 83.0013 22.2236C85.3824 22.2236 86.9404 21.0771 87.7194 19.0929H87.8076V21.9296H91.9525V6.17321ZM95.0662 21.9296H99.3581V13.1254C99.3581 10.906 100.593 9.61257 102.709 9.61257C103.327 9.61257 103.914 9.71546 104.267 9.86244V6.08502C103.973 5.99683 103.547 5.92334 103.047 5.92334C101.195 5.92334 99.8578 7.011 99.2993 9.00995H99.2111V6.17321H95.0662V21.9296ZM113.787 21.9296H118.079V9.40679H121.107V6.2467H117.976V5.20313C117.976 4.08608 118.593 3.46876 120.004 3.46876C120.431 3.46876 120.857 3.49815 121.166 3.55694V0.720208C120.666 0.617321 119.769 0.529132 118.975 0.529132C115.242 0.529132 113.787 1.96955 113.787 5.05615V6.2467H111.641V9.40679H113.787V21.9296ZM128.953 19.0782C127.498 19.0782 126.528 18.3432 126.528 17.1674C126.528 16.0503 127.439 15.3301 129.041 15.2126L132.363 15.0068V16.1532C132.363 17.8582 130.82 19.0782 128.953 19.0782ZM127.542 22.1795C129.512 22.1795 131.467 21.1947 132.349 19.5191H132.437V21.9296H136.582V11.0971C136.582 7.92229 133.951 5.83515 129.909 5.83515C125.734 5.83515 123.133 7.93698 122.971 10.9942H126.896C127.101 9.83304 128.115 9.03934 129.718 9.03934C131.334 9.03934 132.363 9.89183 132.363 11.3616V12.4052L128.395 12.6404C124.47 12.8756 122.266 14.5364 122.266 17.4026C122.266 20.2393 124.544 22.1795 127.542 22.1795ZM153.997 6.17321H149.514L146.251 18.1375H146.162L142.885 6.17321H138.284L143.737 21.9296H148.588L153.997 6.17321ZM162.607 22.2676C167.37 22.2676 170.412 19.2251 170.412 14.0367C170.412 8.92176 167.325 5.83515 162.607 5.83515C157.889 5.83515 154.803 8.93646 154.803 14.0367C154.803 19.2104 157.845 22.2676 162.607 22.2676ZM162.607 18.99C160.491 18.99 159.153 17.2115 159.153 14.0514C159.153 10.9207 160.52 9.11283 162.607 9.11283C164.695 9.11283 166.047 10.9207 166.047 14.0514C166.047 17.2115 164.709 18.99 162.607 18.99ZM172.953 21.9296H177.244V13.1254C177.244 10.906 178.479 9.61257 180.596 9.61257C181.213 9.61257 181.801 9.71546 182.154 9.86244V6.08502C181.86 5.99683 181.433 5.92334 180.934 5.92334C179.082 5.92334 177.744 7.011 177.186 9.00995H177.097V6.17321H172.953V21.9296ZM184.312 21.9296H188.604V6.17321H184.312V21.9296ZM186.458 4.43883C187.751 4.43883 188.751 3.45406 188.751 2.21942C188.751 0.970076 187.751 0 186.458 0C185.164 0 184.165 0.970076 184.165 2.21942C184.165 3.45406 185.164 4.43883 186.458 4.43883ZM192.937 2.54277V6.17321H190.718V9.40679H192.937V17.6818C192.937 20.7537 194.378 21.9884 198.082 21.9884C198.949 21.9884 199.684 21.9149 200.125 21.812V18.6519C199.86 18.696 199.463 18.7254 199.081 18.7254C197.817 18.7254 197.229 18.1522 197.229 16.9469V9.40679H200.14V6.17321H197.229V2.54277H192.937ZM209.647 9.00995C211.558 9.00995 212.866 10.3916 212.954 12.4052H206.266C206.413 10.4357 207.766 9.00995 209.647 9.00995ZM213.013 17.1086C212.616 18.3139 211.411 19.0929 209.838 19.0929C207.648 19.0929 206.222 17.5496 206.222 15.3007V15.0362H217.084V13.728C217.084 8.93646 214.189 5.83515 209.603 5.83515C204.944 5.83515 202.004 9.09813 202.004 14.1249C202.004 19.1663 204.914 22.2676 209.765 22.2676C213.66 22.2676 216.482 20.1952 216.952 17.1086H213.013ZM219.36 10.8031C219.36 13.1254 220.889 14.6834 223.872 15.3595L226.783 16.0062C228.194 16.3443 228.723 16.7852 228.723 17.5789C228.723 18.6078 227.738 19.2545 226.107 19.2545C224.402 19.2545 223.358 18.4902 223.152 17.1674H218.963C219.198 20.2393 221.785 22.2676 225.989 22.2676C230.149 22.2676 233 20.2246 233 17.1233C233 14.7716 231.721 13.5223 228.561 12.8168L225.548 12.17C224.166 11.8467 223.49 11.3176 223.49 10.5385C223.49 9.52438 224.46 8.84827 225.945 8.84827C227.532 8.84827 228.546 9.62727 228.635 10.8913H232.588C232.53 7.8341 229.957 5.83515 226.004 5.83515C221.962 5.83515 219.36 7.8047 219.36 10.8031Z" fill="#010F07"/>
</svg>
