<svg width="65" height="65" viewBox="0 0 65 65" fill="none" xmlns="http://www.w3.org/2000/svg">
<path d="M63.7763 48.3667C57.5305 58.311 45.8749 64.9999 32.5262 64.9999C18.7229 64.9999 6.72983 57.848 0.656886 47.3398C-0.37888 45.8148 0.120197 45.0993 0.120197 45.0993C0.575992 44.1106 2.67681 44.1926 2.67681 44.1926H62.2206C62.2206 44.1926 64.1441 44.1891 64.4995 45.0374C64.4995 45.0374 65.4177 46.3578 63.7763 48.3667Z" fill="#F8AF0C"/>
<path d="M39.8914 40.4447C30.9158 42.6487 20.9471 40.5019 13.9071 34.0032C6.62734 27.2834 4.38837 17.6727 7.18911 9.17421C7.5142 7.86561 8.18618 7.7313 8.18618 7.7313C8.99143 7.43162 10.0526 8.49775 10.0526 8.49775L40.7213 36.8081L41.4557 37.4859C41.4557 37.4859 42.4723 38.4205 42.1749 39.041C42.1749 39.041 41.9051 40.1843 39.8914 40.4447Z" fill="#22A45D"/>
<path d="M40.0023 33.0164C33.9607 29.783 29.897 23.749 29.897 16.8386C29.897 9.6927 34.242 3.48402 40.6262 0.340095C41.5528 -0.196228 41.9875 0.0622253 41.9875 0.0622253C42.5882 0.298065 42.5383 1.38578 42.5383 1.38578V32.211C42.5383 32.211 42.5404 33.2069 42.0249 33.3908C42.0249 33.3908 41.223 33.8662 40.0023 33.0164Z" fill="#FF7058"/>
<path d="M44.7403 34.9096C43.3774 30.1806 44.7049 24.9284 48.7229 21.2192C52.8781 17.3838 58.8204 16.2041 64.0751 17.6799C64.8841 17.8511 64.9672 18.205 64.9672 18.205C65.1523 18.6293 64.4933 19.1885 64.4933 19.1885L46.9887 35.3468L46.5697 35.7337C46.5697 35.7337 45.9917 36.2692 45.6083 36.1126C45.6083 36.1126 44.9011 35.9703 44.7403 34.9096Z" fill="#FFD15C"/>
</svg>
