<svg width="308" height="363" viewBox="0 0 308 363" fill="none" xmlns="http://www.w3.org/2000/svg">
<path fill-rule="evenodd" clip-rule="evenodd" d="M156.336 362.984C239.026 362.984 306.06 295.95 306.06 213.26C306.06 130.569 239.026 63.5355 156.336 63.5355C73.6456 63.5355 6.61188 130.569 6.61188 213.26C6.61188 295.95 73.6456 362.984 156.336 362.984Z" fill="#F1EFDD"/>
<mask id="mask0_4_338" style="mask-type:luminance" maskUnits="userSpaceOnUse" x="6" y="63" width="301" height="300">
<path fill-rule="evenodd" clip-rule="evenodd" d="M156.336 362.984C239.026 362.984 306.06 295.95 306.06 213.26C306.06 130.569 239.026 63.5355 156.336 63.5355C73.6456 63.5355 6.61188 130.569 6.61188 213.26C6.61188 295.95 73.6456 362.984 156.336 362.984Z" fill="white"/>
</mask>
<g mask="url(#mask0_4_338)">
<path d="M264.898 324.125C260.091 328.933 253.081 334.441 246.771 338.146C246.27 338.447 245.77 338.747 245.269 339.048C239.56 342.253 232.951 345.658 231.148 343.855C227.943 340.65 237.457 325.728 245.67 315.813C246.07 315.312 246.371 314.912 246.771 314.511C248.173 312.909 249.475 311.406 250.777 310.104C260.492 300.39 263.997 303.094 267.903 307C271.408 310.505 274.012 313.91 267.001 321.822C266.601 322.223 266.2 322.623 265.8 323.124C265.599 323.525 265.199 323.825 264.898 324.125Z" fill="#FF7B65"/>
<path d="M278.519 305.998C277.016 305.097 275.314 304.696 273.712 304.696C274.513 303.294 275.013 301.592 275.013 299.889C273.311 299.889 271.709 300.29 270.306 301.091C270.306 299.489 269.906 297.886 269.004 296.384C265.599 298.287 263.697 301.992 263.997 305.698C264.097 306.9 265.199 309.604 265.299 309.804C265.399 309.904 268.103 311.006 269.405 311.106C272.91 311.306 276.616 309.504 278.519 305.998Z" fill="#22A45D"/>
<path d="M265.9 323.124L259.49 316.714C259.19 316.414 259.19 315.813 259.49 315.513C259.791 315.212 260.392 315.212 260.692 315.513L267.001 321.822C266.701 322.323 266.3 322.723 265.9 323.124Z" fill="#F2F2F2"/>
<path d="M246.771 338.146C246.27 338.447 245.77 338.747 245.269 339.048L241.263 335.042C240.963 334.741 240.963 334.14 241.263 333.84C241.563 333.54 242.164 333.54 242.465 333.84L246.771 338.146Z" fill="#F2F2F2"/>
<path d="M255.084 324.125C254.783 324.426 254.182 324.426 253.882 324.125L245.67 315.913C246.07 315.412 246.371 315.012 246.771 314.611L255.184 323.024C255.484 323.224 255.484 323.725 255.084 324.125Z" fill="#F2F2F2"/>
<path d="M159.641 141.152V155.273C189.986 155.273 214.623 179.91 214.623 209.955H228.744C228.444 172.098 197.497 141.152 159.641 141.152Z" fill="#F8B64C"/>
<path d="M222.134 216.564C222.134 254.722 191.188 285.367 153.331 285.367C115.174 285.367 84.5284 254.421 84.5284 216.564C84.5284 178.407 115.475 147.762 153.331 147.762V161.883C122.986 161.883 98.6496 186.52 98.6496 216.564C98.6496 246.91 123.286 271.547 153.331 271.547C183.677 271.547 208.314 246.91 208.314 216.564H222.134Z" fill="#F8B64C"/>
<path d="M214.323 209.955C214.323 179.609 189.686 155.273 159.34 155.273V209.955H214.323Z" fill="#FFD15C"/>
<path d="M208.013 216.565C208.013 246.91 183.376 271.547 153.031 271.547C122.686 271.547 98.3491 246.91 98.3491 216.565C98.3491 186.219 122.986 161.883 153.031 161.883V216.565H208.013Z" fill="#FFD15C"/>
<path d="M182.775 251.717C188.251 251.717 192.69 247.278 192.69 241.802C192.69 236.326 188.251 231.887 182.775 231.887C177.3 231.887 172.861 236.326 172.861 241.802C172.861 247.278 177.3 251.717 182.775 251.717Z" fill="#FF7B65"/>
<path d="M182.775 236.995C183.771 236.995 184.578 236.188 184.578 235.192C184.578 234.197 183.771 233.39 182.775 233.39C181.78 233.39 180.973 234.197 180.973 235.192C180.973 236.188 181.78 236.995 182.775 236.995Z" fill="#E76A56"/>
<path d="M182.775 250.515C183.771 250.515 184.578 249.708 184.578 248.713C184.578 247.717 183.771 246.91 182.775 246.91C181.78 246.91 180.973 247.717 180.973 248.713C180.973 249.708 181.78 250.515 182.775 250.515Z" fill="#E76A56"/>
<path d="M188.818 238.287C189.522 237.583 189.521 236.442 188.817 235.738C188.113 235.034 186.972 235.034 186.268 235.738C185.564 236.442 185.564 237.583 186.268 238.287C186.972 238.991 188.114 238.991 188.818 238.287Z" fill="#E76A56"/>
<path d="M179.151 247.892C179.855 247.188 179.855 246.046 179.151 245.342C178.447 244.638 177.306 244.638 176.602 245.342C175.898 246.046 175.898 247.188 176.602 247.892C177.306 248.596 178.447 248.596 179.151 247.892Z" fill="#E76A56"/>
<path d="M189.686 243.605C190.681 243.605 191.488 242.798 191.488 241.802C191.488 240.807 190.681 240 189.686 240C188.69 240 187.883 240.807 187.883 241.802C187.883 242.798 188.69 243.605 189.686 243.605Z" fill="#E76A56"/>
<path d="M175.865 243.605C176.861 243.605 177.668 242.798 177.668 241.802C177.668 240.807 176.861 240 175.865 240C174.87 240 174.062 240.807 174.062 241.802C174.062 242.798 174.87 243.605 175.865 243.605Z" fill="#E76A56"/>
<path d="M188.781 247.912C189.485 247.208 189.485 246.067 188.781 245.363C188.077 244.659 186.936 244.659 186.232 245.363C185.528 246.067 185.528 247.208 186.232 247.912C186.936 248.616 188.077 248.616 188.781 247.912Z" fill="#E76A56"/>
<path d="M179.188 238.258C179.892 237.554 179.892 236.413 179.188 235.709C178.484 235.005 177.343 235.005 176.639 235.708C175.935 236.412 175.935 237.554 176.639 238.258C177.342 238.962 178.484 238.962 179.188 238.258Z" fill="#E76A56"/>
<path d="M119.681 221.672C125.157 221.672 129.596 217.233 129.596 211.757C129.596 206.281 125.157 201.842 119.681 201.842C114.205 201.842 109.766 206.281 109.766 211.757C109.766 217.233 114.205 221.672 119.681 221.672Z" fill="#FF7B65"/>
<path d="M119.681 206.95C120.677 206.95 121.484 206.143 121.484 205.147C121.484 204.152 120.677 203.345 119.681 203.345C118.685 203.345 117.878 204.152 117.878 205.147C117.878 206.143 118.685 206.95 119.681 206.95Z" fill="#E76A56"/>
<path d="M119.681 220.47C120.677 220.47 121.484 219.663 121.484 218.668C121.484 217.672 120.677 216.865 119.681 216.865C118.685 216.865 117.878 217.672 117.878 218.668C117.878 219.663 118.685 220.47 119.681 220.47Z" fill="#E76A56"/>
<path d="M125.723 208.242C126.427 207.538 126.427 206.397 125.723 205.693C125.019 204.989 123.878 204.989 123.174 205.693C122.47 206.397 122.47 207.539 123.174 208.242C123.878 208.946 125.019 208.946 125.723 208.242Z" fill="#E76A56"/>
<path d="M116.057 217.847C116.761 217.143 116.761 216.001 116.057 215.297C115.353 214.593 114.212 214.593 113.508 215.297C112.804 216.001 112.804 217.143 113.508 217.847C114.212 218.551 115.353 218.551 116.057 217.847Z" fill="#E76A56"/>
<path d="M126.591 213.56C127.587 213.56 128.394 212.753 128.394 211.757C128.394 210.762 127.587 209.955 126.591 209.955C125.596 209.955 124.789 210.762 124.789 211.757C124.789 212.753 125.596 213.56 126.591 213.56Z" fill="#E76A56"/>
<path d="M112.771 213.56C113.766 213.56 114.573 212.753 114.573 211.757C114.573 210.762 113.766 209.955 112.771 209.955C111.775 209.955 110.968 210.762 110.968 211.757C110.968 212.753 111.775 213.56 112.771 213.56Z" fill="#E76A56"/>
<path d="M125.687 217.867C126.391 217.163 126.391 216.022 125.687 215.318C124.983 214.614 123.842 214.614 123.138 215.318C122.434 216.022 122.434 217.163 123.138 217.867C123.842 218.571 124.983 218.571 125.687 217.867Z" fill="#E76A56"/>
<path d="M116.093 208.213C116.798 207.509 116.798 206.368 116.094 205.664C115.39 204.96 114.249 204.96 113.544 205.663C112.84 206.367 112.84 207.509 113.544 208.213C114.248 208.917 115.389 208.917 116.093 208.213Z" fill="#E76A56"/>
<path fill-rule="evenodd" clip-rule="evenodd" d="M139.21 178.107C139.511 178.407 140.112 178.708 140.712 178.708C141.313 178.708 142.215 178.407 143.417 177.506C145.219 179.008 146.721 179.008 147.623 178.107C148.524 177.206 148.524 175.703 147.022 173.901C148.524 172.098 148.524 170.596 147.623 169.694C146.721 168.793 145.219 168.793 143.417 170.295C141.614 168.793 140.112 168.793 139.21 169.694C138.309 170.596 138.309 172.098 139.811 173.901C138.309 175.703 138.309 177.206 139.21 178.107ZM139.811 170.596C140.112 170.295 140.412 170.295 140.712 170.295C141.313 170.295 141.914 170.596 142.816 171.197L143.116 171.798L143.417 171.497C144.618 170.295 145.82 169.995 146.421 170.596C147.022 170.896 146.721 172.098 145.52 173.6L145.219 173.901L145.52 174.201C146.721 175.403 147.022 176.605 146.421 177.206C146.121 177.807 144.919 177.506 143.417 176.304L143.116 176.004L142.816 176.304C141.614 177.506 140.412 177.807 139.811 177.206C139.21 176.905 139.511 175.703 140.712 174.201L141.013 173.901L140.712 173.6C139.511 172.398 139.21 171.197 139.811 170.596Z" fill="#FF7B65"/>
<path d="M122.986 187.721C124.479 187.721 125.69 186.511 125.69 185.017C125.69 183.524 124.479 182.313 122.986 182.313C121.493 182.313 120.282 183.524 120.282 185.017C120.282 186.511 121.493 187.721 122.986 187.721Z" fill="#40596B"/>
<path d="M123.887 185.017C124.385 185.017 124.789 184.614 124.789 184.116C124.789 183.618 124.385 183.215 123.887 183.215C123.39 183.215 122.986 183.618 122.986 184.116C122.986 184.614 123.39 185.017 123.887 185.017Z" fill="white"/>
<path d="M140.412 239.699C141.905 239.699 143.116 238.488 143.116 236.995C143.116 235.502 141.905 234.291 140.412 234.291C138.919 234.291 137.708 235.502 137.708 236.995C137.708 238.488 138.919 239.699 140.412 239.699Z" fill="#40596B"/>
<path d="M141.013 236.995C141.511 236.995 141.914 236.592 141.914 236.094C141.914 235.596 141.511 235.192 141.013 235.192C140.515 235.192 140.112 235.596 140.112 236.094C140.112 236.592 140.515 236.995 141.013 236.995Z" fill="white"/>
<path d="M198.098 225.578C199.592 225.578 200.802 224.367 200.802 222.874C200.802 221.381 199.592 220.17 198.098 220.17C196.605 220.17 195.394 221.381 195.394 222.874C195.394 224.367 196.605 225.578 198.098 225.578Z" fill="#40596B"/>
<path d="M199 222.573C199.498 222.573 199.901 222.17 199.901 221.672C199.901 221.174 199.498 220.771 199 220.771C198.502 220.771 198.098 221.174 198.098 221.672C198.098 222.17 198.502 222.573 199 222.573Z" fill="white"/>
<path d="M198.399 183.215C199.892 183.215 201.103 182.004 201.103 180.511C201.103 179.017 199.892 177.806 198.399 177.806C196.905 177.806 195.695 179.017 195.695 180.511C195.695 182.004 196.905 183.215 198.399 183.215Z" fill="#40596B"/>
<path d="M199.3 180.511C199.798 180.511 200.202 180.107 200.202 179.609C200.202 179.111 199.798 178.708 199.3 178.708C198.802 178.708 198.399 179.111 198.399 179.609C198.399 180.107 198.802 180.511 199.3 180.511Z" fill="white"/>
<path d="M167.452 254.722C168.946 254.722 170.157 253.511 170.157 252.018C170.157 250.524 168.946 249.314 167.452 249.314C165.959 249.314 164.748 250.524 164.748 252.018C164.748 253.511 165.959 254.722 167.452 254.722Z" fill="#40596B"/>
<path d="M168.053 251.717C168.551 251.717 168.955 251.314 168.955 250.816C168.955 250.318 168.551 249.914 168.053 249.914C167.556 249.914 167.152 250.318 167.152 250.816C167.152 251.314 167.556 251.717 168.053 251.717Z" fill="white"/>
<path d="M140.412 200.04C142.901 200.04 144.919 198.022 144.919 195.533C144.919 193.044 142.901 191.026 140.412 191.026C137.923 191.026 135.905 193.044 135.905 195.533C135.905 198.022 137.923 200.04 140.412 200.04Z" fill="white"/>
<path d="M156.636 234.892C158.439 233.39 158.739 230.686 157.237 228.582C155.735 226.78 153.031 226.479 150.928 227.982C150.327 228.582 150.627 229.784 151.228 230.986L147.923 233.69L150.327 236.695L153.632 233.991C154.834 234.892 156.035 235.493 156.636 234.892Z" fill="#22A45D"/>
<path fill-rule="evenodd" clip-rule="evenodd" d="M113.973 241.802C113.973 238.497 116.677 235.793 119.982 235.793C123.286 235.793 125.991 238.497 125.991 241.802C125.991 245.107 123.286 247.811 119.982 247.811C116.677 247.811 113.973 245.107 113.973 241.802ZM116.376 242.103C116.376 243.905 117.878 245.708 119.982 245.708C122.085 245.708 123.587 243.905 123.587 242.103C123.587 240.3 122.085 238.497 119.982 238.497C118.179 238.497 116.376 240 116.376 242.103Z" fill="#FF7B65"/>
<path d="M180.973 190.125C178.269 187.721 177.668 183.816 180.071 181.111C182.475 178.407 186.381 177.807 189.085 180.21C189.986 181.111 189.686 182.914 188.784 184.717L193.592 188.623L189.986 192.829L185.179 188.923C183.677 190.125 181.874 191.026 180.973 190.125Z" fill="#22A45D"/>
<path fill-rule="evenodd" clip-rule="evenodd" d="M210.417 196.134C210.417 199.439 207.713 202.143 204.408 202.143C201.103 202.143 198.399 199.439 198.399 196.134C198.399 192.829 201.103 190.125 204.408 190.125C207.713 190.125 210.417 192.829 210.417 196.134ZM208.013 195.834C208.013 194.031 206.511 192.228 204.408 192.228C202.305 192.228 200.802 193.73 200.802 195.834C200.802 197.636 202.305 199.439 204.408 199.439C206.211 199.439 208.013 197.937 208.013 195.834Z" fill="#E76A56"/>
<path d="M166.852 206.049C166.852 204.847 168.053 203.946 168.955 204.246C172.861 204.547 176.166 201.542 176.466 197.636C176.466 196.434 177.668 195.533 178.569 195.834C179.771 195.834 180.672 197.035 180.372 197.937C180.071 204.246 174.663 208.753 168.354 208.452C167.453 208.152 166.551 207.251 166.852 206.049Z" fill="#5DBB88"/>
<path d="M141.914 253.219C143.116 253.219 144.017 254.121 144.017 255.022C144.318 258.928 147.623 261.932 151.529 261.632C152.73 261.632 153.632 262.533 153.632 263.435C153.632 264.636 152.73 265.538 151.829 265.538C145.52 266.139 140.112 261.332 139.811 255.323C139.811 254.421 140.713 253.219 141.914 253.219Z" fill="#5DBB88"/>
<path d="M170.157 179.309C174.139 179.309 177.367 176.08 177.367 172.098C177.367 168.116 174.139 164.887 170.157 164.887C166.174 164.887 162.946 168.116 162.946 172.098C162.946 176.08 166.174 179.309 170.157 179.309Z" fill="#F8B64C"/>
</g>
<path d="M264.898 324.125C260.091 328.933 253.081 334.441 246.771 338.146C246.27 338.447 245.77 338.747 245.269 339.048C239.56 342.253 232.95 345.658 231.148 343.855C227.943 340.65 237.457 325.728 245.67 315.813C246.07 315.312 246.371 314.912 246.771 314.511C248.173 312.909 249.475 311.406 250.777 310.104C260.492 300.39 263.997 303.094 267.903 307C271.408 310.505 274.012 313.91 267.001 321.822C266.601 322.223 266.2 322.623 265.8 323.124C265.599 323.525 265.199 323.825 264.898 324.125Z" fill="#FF7B65"/>
<path d="M278.519 305.998C277.016 305.097 275.314 304.696 273.711 304.696C274.513 303.294 275.013 301.592 275.013 299.889C273.311 299.889 271.708 300.29 270.306 301.091C270.306 299.489 269.906 297.886 269.004 296.384C265.599 298.287 263.696 301.992 263.997 305.698C264.097 306.9 265.199 309.604 265.299 309.804C265.399 309.904 268.103 311.006 269.405 311.106C272.91 311.306 276.616 309.504 278.519 305.998Z" fill="#22A45D"/>
<path d="M265.9 323.124L259.49 316.714C259.19 316.414 259.19 315.813 259.49 315.513C259.791 315.212 260.392 315.212 260.692 315.513L267.001 321.822C266.701 322.323 266.3 322.723 265.9 323.124Z" fill="#F2F2F2"/>
<path d="M246.771 338.146C246.27 338.447 245.77 338.747 245.269 339.048L241.263 335.042C240.962 334.741 240.962 334.14 241.263 333.84C241.563 333.54 242.164 333.54 242.465 333.84L246.771 338.146Z" fill="#F2F2F2"/>
<path d="M255.084 324.125C254.783 324.426 254.182 324.426 253.882 324.125L245.67 315.913C246.07 315.412 246.371 315.012 246.771 314.611L255.184 323.024C255.484 323.224 255.484 323.725 255.084 324.125Z" fill="#F2F2F2"/>
<path d="M53.0861 79.8644C61.4987 71.4518 61.4987 57.9316 53.0861 49.519L22.7407 79.8644C31.1533 88.277 44.7737 88.277 53.0861 79.8644Z" fill="#FF7058"/>
<path d="M56.391 46.3142C66.6063 56.4293 66.6063 72.954 56.391 83.1693C46.1757 93.3846 29.651 93.3846 19.5359 83.1693L18.0336 84.6716C29.0501 95.688 46.8768 95.688 57.8933 84.6716C68.9098 73.6551 68.9098 55.8284 57.8933 44.8119L56.391 46.3142Z" fill="#22A45D"/>
<rect x="19.5045" y="83.202" width="4.60685" height="0.10015" transform="rotate(-45 19.5045 83.202)" fill="#F2F2F2"/>
<rect x="53.1081" y="49.5327" width="4.60685" height="0.10015" transform="rotate(-45 53.1081 49.5327)" fill="#F2F2F2"/>
<path d="M56.391 83.1693C66.6063 72.954 66.6063 56.4293 56.391 46.3142L53.0861 49.6191C61.4987 58.0317 61.4987 71.5519 53.0861 79.9645C44.6735 88.3771 31.1533 88.3771 22.7407 79.9645L19.5359 83.1693C29.651 93.3846 46.1757 93.3846 56.391 83.1693Z" fill="#F2F2F2"/>
<path d="M50.2456 59.9555C50.8322 59.3689 50.8322 58.4177 50.2456 57.831C49.6589 57.2444 48.7078 57.2444 48.1211 57.831C47.5345 58.4177 47.5345 59.3689 48.1211 59.9555C48.7078 60.5422 49.6589 60.5422 50.2456 59.9555Z" fill="white"/>
<path d="M41.744 68.4728C42.3306 67.8861 42.3306 66.935 41.744 66.3483C41.1573 65.7617 40.2062 65.7617 39.6195 66.3483C39.0328 66.935 39.0328 67.8861 39.6195 68.4728C40.2062 69.0594 41.1573 69.0594 41.744 68.4728Z" fill="white"/>
<path d="M33.2424 76.99C33.829 76.4034 33.829 75.4522 33.2424 74.8656C32.6557 74.2789 31.7045 74.2789 31.1179 74.8656C30.5312 75.4522 30.5312 76.4034 31.1179 76.99C31.7045 77.5767 32.6557 77.5767 33.2424 76.99Z" fill="white"/>
<path d="M49.8415 68.0915C50.4282 67.5049 50.4282 66.5537 49.8415 65.9671C49.2549 65.3804 48.3037 65.3804 47.7171 65.9671C47.1304 66.5537 47.1304 67.5049 47.7171 68.0915C48.3037 68.6782 49.2549 68.6782 49.8415 68.0915Z" fill="white"/>
<path d="M41.3399 76.6088C41.9266 76.0221 41.9266 75.071 41.3399 74.4843C40.7533 73.8977 39.8021 73.8977 39.2155 74.4843C38.6288 75.071 38.6288 76.0221 39.2155 76.6088C39.8021 77.1955 40.7533 77.1955 41.3399 76.6088Z" fill="white"/>
<path d="M49.4374 76.2278C50.0241 75.6411 50.0241 74.69 49.4374 74.1033C48.8508 73.5167 47.8996 73.5167 47.313 74.1033C46.7263 74.69 46.7263 75.6411 47.313 76.2278C47.8996 76.8145 48.8508 76.8145 49.4374 76.2278Z" fill="white"/>
<path d="M206.516 78.963C206.816 78.1618 208.118 76.4593 208.919 76.5594C213.226 76.7597 227.046 76.96 233.055 70.3501C233.055 70.3501 236.861 67.2455 238.063 59.6341C238.063 59.6341 237.462 53.3247 236.961 51.0212C236.861 50.5205 236.961 50.0197 237.262 49.6191C237.662 49.0182 238.463 48.8179 239.164 49.0182L240.567 49.3187C241.568 49.6191 242.169 50.4203 242.269 51.4218L242.469 57.1303C242.469 57.1303 250.782 60.7357 247.577 72.7537C247.577 72.7537 242.87 86.274 223.942 88.3771C223.942 88.3771 214.828 90.0796 206.616 81.9675C206.215 81.4668 206.315 79.6641 206.516 78.963Z" fill="#22A45D"/>
<path d="M237.963 90.8808C237.963 90.8808 230.051 95.8883 219.435 91.0811C218.233 90.5804 218.233 88.0767 218.233 88.0767C221.538 88.6775 223.842 88.277 223.842 88.277C242.87 86.274 247.577 72.7537 247.577 72.7537C250.782 60.7357 242.469 57.1303 242.469 57.1303C242.469 57.1303 241.368 55.9286 238.764 55.0272C238.263 54.0257 237.662 53.0242 237.262 52.223C237.161 51.7223 237.161 51.3217 237.061 51.0212C236.961 50.5205 237.061 50.0197 237.362 49.6191C237.762 49.0182 238.564 48.8179 239.265 49.0182L240.567 49.3187C241.268 49.519 241.768 50.0197 242.069 50.6206C242.069 50.6206 242.069 50.7208 242.169 50.7208L244.072 55.1274C244.072 55.1274 253.085 55.528 254.387 67.8464C254.387 67.8464 254.888 82.0677 237.963 90.8808Z" fill="#30AC68"/>
<path d="M242.069 50.6206C241.868 50.0197 241.268 49.519 240.567 49.3187L239.265 48.9181C238.564 48.7178 237.862 49.0182 237.362 49.519C237.061 49.9196 236.961 50.4203 237.061 50.9211C237.161 51.2215 237.161 51.7223 237.262 52.1229C237.061 51.9226 236.861 51.6221 236.761 51.3217C236.46 50.9211 236.46 50.4203 236.561 49.9196C236.761 49.2185 237.362 48.7178 238.063 48.6176L239.465 48.5175C240.466 48.4173 241.368 49.0182 241.768 49.9196L242.069 50.6206Z" fill="#136D3C"/>
<path d="M242.469 57.1304C242.469 57.1304 241.368 55.9286 238.764 55.0272C239.865 57.0302 240.767 59.0332 240.767 59.0332C242.369 66.5444 239.966 70.8509 239.966 70.8509C236.661 79.1633 223.741 83.9705 219.635 85.2725C218.934 85.4728 218.433 86.1738 218.333 86.975V88.1768C221.638 88.7777 223.942 88.3771 223.942 88.3771C242.87 86.274 247.577 72.7537 247.577 72.7537C250.782 60.7358 242.469 57.1304 242.469 57.1304Z" fill="#5DBB88"/>
<rect x="32.1303" y="292.708" width="4.80715" height="12.3183" transform="rotate(-45 32.1303 292.708)" fill="#EEF8F2"/>
<path d="M37.7632 291.481L35.5599 289.278L32.1548 292.683L34.3581 294.886C35.1593 294.586 35.8603 294.085 36.4612 293.584C37.0621 292.983 37.4627 292.282 37.7632 291.481Z" fill="#DBEDE2"/>
<path d="M35.2594 292.382C31.1533 296.488 14.1278 291.581 5.71521 283.169C-2.69738 274.756 -0.794529 267.645 4.81386 261.937C8.61956 258.231 13.0261 256.128 17.9335 257.63C18.935 257.931 20.0366 258.331 21.0381 258.932C22.6405 259.834 24.3431 261.136 26.0456 262.838C26.8468 263.639 27.7482 264.541 28.4492 265.642C28.95 266.343 29.5509 267.044 29.9515 267.846C31.3536 269.949 32.5554 272.252 33.4567 274.556C33.7572 275.257 34.0576 275.858 34.2579 276.559C35.2594 279.163 35.9605 281.666 36.2609 283.97C36.3611 284.671 36.4612 285.372 36.4612 286.073C36.8618 288.777 36.3611 291.181 35.2594 292.382Z" fill="#FF7B65"/>
<path d="M43.672 300.795C44.8738 301.196 46.1758 300.895 47.0771 299.994C48.3791 298.692 48.3791 296.488 47.0771 295.187C45.7752 293.885 43.5719 293.885 42.2699 295.187C41.3686 296.088 41.0681 297.49 41.4687 298.592C40.2669 298.191 38.965 298.491 38.0636 299.393C36.7617 300.695 36.7617 302.898 38.0636 304.2C39.3656 305.502 41.5689 305.502 42.8708 304.2C43.7722 303.299 44.0726 301.897 43.672 300.795Z" fill="#EEF8F2"/>
<path d="M36.6615 285.973C35.2594 286.473 33.9575 287.275 32.7557 288.476C32.3551 288.877 31.654 288.877 31.2534 288.476C30.8528 288.076 30.8528 287.375 31.2534 286.974C32.7557 285.472 34.4582 284.47 36.3611 283.87C36.4612 284.571 36.5614 285.272 36.6615 285.973Z" fill="#E76A56"/>
<path d="M34.3581 276.458C31.654 276.458 28.8498 277.46 26.8468 279.563C26.4462 279.964 25.7452 279.964 25.3446 279.563C24.944 279.163 24.944 278.562 25.3446 278.161C27.648 275.858 30.5524 274.656 33.5569 274.455C33.8573 275.157 34.1578 275.757 34.3581 276.458Z" fill="#E76A56"/>
<path d="M30.0517 267.745C26.8469 267.245 23.4418 268.246 20.938 270.75C20.5374 271.151 19.8364 271.151 19.4358 270.75C19.0352 270.349 19.0352 269.648 19.4358 269.248C21.9395 266.744 25.2445 265.542 28.4493 265.542C29.0502 266.243 29.5509 267.044 30.0517 267.745Z" fill="#E76A56"/>
<path d="M21.0381 258.932C18.8348 259.233 16.6315 260.234 14.929 261.937C14.5284 262.337 13.9275 262.337 13.5269 261.937C13.1263 261.536 13.1263 260.935 13.5269 260.535C14.8289 259.233 16.3311 258.231 18.0336 257.63C18.935 257.831 20.0366 258.331 21.0381 258.932Z" fill="#E76A56"/>
<path d="M289.724 114.853L294.261 110.316C300.16 116.366 303.79 124.533 303.941 133.608H270.969L289.724 114.853Z" fill="#FF7B65"/>
<path d="M270.969 133.608L289.724 114.853C294.412 119.693 297.286 126.348 297.437 133.608H270.969Z" fill="#FFD15C"/>
<path d="M295.169 131.339C296.227 130.432 296.379 128.768 295.471 127.709C294.564 126.651 292.9 126.499 291.841 127.407C291.387 127.709 291.539 128.466 291.992 129.222L290.026 130.886L291.387 132.549L293.354 130.886C294.11 131.339 294.866 131.642 295.169 131.339Z" fill="#22A45D"/>
<path fill-rule="evenodd" clip-rule="evenodd" d="M278.532 129.978C278.532 128.617 279.59 127.558 280.951 127.558C282.313 127.558 283.371 128.617 283.371 129.978C283.371 131.339 282.313 132.398 280.951 132.398C279.59 132.398 278.532 131.339 278.532 129.978ZM279.439 130.129C279.439 131.037 280.044 131.642 280.951 131.642C281.708 131.642 282.464 130.886 282.464 130.129C282.464 129.373 281.859 128.617 280.951 128.617C280.195 128.617 279.439 129.222 279.439 130.129Z" fill="#FF7B65"/>
<path fill-rule="evenodd" clip-rule="evenodd" d="M286.094 123.323C286.094 121.962 287.153 120.903 288.514 120.903C289.875 120.903 290.934 121.962 290.934 123.323C290.934 124.684 289.875 125.743 288.514 125.743C287.153 125.743 286.094 124.684 286.094 123.323ZM287.001 123.474C287.001 124.231 287.606 124.987 288.514 124.987C289.421 124.987 290.026 124.231 290.026 123.474C290.026 122.567 289.421 121.962 288.514 121.962C287.606 121.962 287.001 122.567 287.001 123.474Z" fill="#E76A56"/>
<path d="M151.46 14.2172L132.705 32.9718V0C141.78 0.151247 149.947 3.78117 155.997 9.67979L151.46 14.2172Z" fill="#FF7B65"/>
<path d="M151.46 14.2172L132.705 32.9718V6.50363C139.965 6.65487 146.469 9.52856 151.46 14.2172Z" fill="#FFD15C"/>
<path fill-rule="evenodd" clip-rule="evenodd" d="M142.687 14.3684C142.687 13.0072 143.746 11.9485 145.107 11.9485C146.469 11.9485 147.527 13.0072 147.527 14.3684C147.527 15.7296 146.469 16.7884 145.107 16.7884C143.746 16.7884 142.687 15.7296 142.687 14.3684ZM143.595 14.3684C143.595 15.2759 144.2 15.8809 145.107 15.8809C146.015 15.8809 146.62 15.2759 146.62 14.3684C146.62 13.6122 146.015 12.856 145.107 12.856C144.2 12.856 143.595 13.4609 143.595 14.3684Z" fill="#FF7058"/>
<path d="M137.394 24.1995C138.981 24.1995 140.268 22.9129 140.268 21.3258C140.268 19.7387 138.981 18.4521 137.394 18.4521C135.807 18.4521 134.52 19.7387 134.52 21.3258C134.52 22.9129 135.807 24.1995 137.394 24.1995Z" fill="#22A45D"/>
<path d="M139.511 10.2848C139.36 10.7385 138.906 11.041 138.453 10.8897C136.94 10.436 135.276 11.3435 134.974 12.856C134.823 13.3097 134.369 13.6122 133.915 13.4609C133.461 13.3097 133.159 12.856 133.31 12.4022C134.066 9.98227 136.486 8.62104 138.906 9.22603C139.36 9.37728 139.663 9.83102 139.511 10.2848Z" fill="#5DBB88"/>
<path d="M84.899 71.8708C86.1519 71.8708 87.1677 70.8551 87.1677 69.6021C87.1677 68.3491 86.1519 67.3334 84.899 67.3334C83.646 67.3334 82.6303 68.3491 82.6303 69.6021C82.6303 70.8551 83.646 71.8708 84.899 71.8708Z" fill="#F8B64C"/>
<path d="M95.94 56.8973C95.94 55.3849 94.73 54.3262 93.3688 54.3262C91.8563 54.3262 90.7976 55.5361 90.7976 56.8973C90.7976 57.3511 91.4026 57.6536 92.3101 57.8048V60.376H94.5788V57.8048C95.335 57.8048 95.94 57.5023 95.94 56.8973Z" fill="#22A45D"/>
<path d="M272.81 269.735C273.717 268.828 273.717 267.315 272.81 266.408C271.902 265.5 270.39 265.5 269.482 266.408C269.18 266.71 269.331 267.315 269.785 268.071L268.121 269.735L269.634 271.096L271.297 269.433C271.902 269.886 272.507 270.038 272.81 269.735Z" fill="#22A45D"/>
<path fill-rule="evenodd" clip-rule="evenodd" d="M143.722 104.818C143.722 103.457 144.78 102.398 146.142 102.398C147.503 102.398 148.562 103.457 148.562 104.818C148.562 106.179 147.503 107.238 146.142 107.238C144.78 107.238 143.722 106.179 143.722 104.818ZM144.629 104.818C144.629 105.726 145.234 106.33 146.142 106.33C146.898 106.33 147.654 105.726 147.654 104.818C147.654 103.911 147.049 103.306 146.142 103.306C145.234 103.306 144.629 103.911 144.629 104.818Z" fill="#FF7058"/>
<path fill-rule="evenodd" clip-rule="evenodd" d="M82.6303 322.993C82.6303 321.783 83.689 320.725 84.899 320.725C86.109 320.725 87.0164 321.783 87.1677 322.993C87.1677 324.203 86.109 325.262 84.899 325.262C83.689 325.262 82.6303 324.203 82.6303 322.993ZM83.5378 322.993C83.5378 323.75 84.1427 324.355 84.899 324.355C85.6552 324.355 86.2602 323.75 86.2602 322.993C86.2602 322.237 85.6552 321.632 84.899 321.632C84.1427 321.632 83.5378 322.237 83.5378 322.993Z" fill="#FF7058"/>
<path d="M95.519 281.405C97.106 281.405 98.3926 280.118 98.3926 278.531C98.3926 276.944 97.106 275.657 95.519 275.657C93.9319 275.657 92.6453 276.944 92.6453 278.531C92.6453 280.118 93.9319 281.405 95.519 281.405Z" fill="#F8B64C"/>
<path d="M66.4755 137.189C68.0626 137.189 69.3492 135.902 69.3492 134.315C69.3492 132.728 68.0626 131.442 66.4755 131.442C64.8884 131.442 63.6018 132.728 63.6018 134.315C63.6018 135.902 64.8884 137.189 66.4755 137.189Z" fill="#F8B64C"/>
<path d="M174.695 122.318C174.241 122.318 173.938 121.864 173.938 121.41C174.241 119.898 173.182 118.385 171.518 118.083C171.065 118.083 170.762 117.629 170.762 117.175C170.762 116.722 171.216 116.419 171.67 116.419C174.09 116.873 175.753 119.141 175.451 121.561C175.602 122.166 175.148 122.469 174.695 122.318Z" fill="#F8B64C"/>
<path d="M218.949 278.891C220.118 278.891 221.066 277.943 221.066 276.773C221.066 275.604 220.118 274.656 218.949 274.656C217.779 274.656 216.831 275.604 216.831 276.773C216.831 277.943 217.779 278.891 218.949 278.891Z" fill="#F8B64C"/>
<path d="M261.92 255.367C260.559 255.216 259.651 254.006 259.954 252.644C260.105 251.283 261.315 250.376 262.676 250.678C263.13 250.678 263.281 251.434 263.432 252.191L265.701 252.493L265.399 254.459L262.979 254.157C262.827 254.913 262.374 255.518 261.92 255.367Z" fill="#22A45D"/>
<path d="M118.705 134.487C120.375 134.487 121.73 133.133 121.73 131.462C121.73 129.791 120.375 128.437 118.705 128.437C117.034 128.437 115.68 129.791 115.68 131.462C115.68 133.133 117.034 134.487 118.705 134.487Z" fill="#F8B64C"/>
<path d="M306.903 203.858C306.449 203.858 306.147 204.311 306.298 204.765C306.6 206.126 305.542 207.487 304.18 207.79C303.727 207.79 303.424 208.244 303.575 208.697C303.575 209.151 304.029 209.454 304.483 209.302C306.752 209 308.264 206.882 307.962 204.614C307.81 204.16 307.357 203.858 306.903 203.858Z" fill="#F8B64C"/>
<path d="M69.9731 341.173C69.5193 341.173 69.2168 341.627 69.3681 342.081C69.6706 343.442 68.6119 344.803 67.2506 345.106C66.7969 345.106 66.4944 345.559 66.6456 346.013C66.6456 346.467 67.0994 346.769 67.5531 346.618C69.8218 346.316 71.3343 344.198 71.0318 341.929C70.8806 341.324 70.4268 341.022 69.9731 341.173Z" fill="#F8B64C"/>
<path d="M82.3753 331.645C82.0728 331.947 81.4678 331.947 81.1653 331.493C80.1066 330.283 78.2916 330.132 77.0817 331.191C76.7792 331.493 76.1742 331.493 75.8717 331.04C75.5692 330.737 75.5692 330.132 76.0229 329.83C77.9891 328.166 80.7116 328.468 82.3753 330.283C82.6778 330.888 82.6778 331.342 82.3753 331.645Z" fill="#F8B64C"/>
<path d="M294.652 188.43C294.349 188.733 293.744 188.733 293.442 188.279C292.383 187.069 290.568 186.918 289.358 187.977C289.056 188.279 288.451 188.279 288.148 187.825C287.846 187.523 287.846 186.918 288.3 186.615C290.266 184.952 292.988 185.254 294.652 187.069C295.106 187.674 294.954 188.128 294.652 188.43Z" fill="#F8B64C"/>
</svg>
