<svg width="214" height="244" viewBox="0 0 214 244" fill="none" xmlns="http://www.w3.org/2000/svg">
<path fill-rule="evenodd" clip-rule="evenodd" d="M203.187 163.823C204.194 165.358 205.201 166.892 206.258 168.39C206.413 168.61 206.572 168.832 206.732 169.055C208.23 171.145 209.834 173.384 209.81 176.042C209.799 177.349 209.609 178.793 208.348 179.496C208.32 178.987 207.591 179.49 207.346 179.659C207.331 179.669 207.319 179.678 207.308 179.685C206.871 179.983 206.784 180.108 206.675 180.133C206.574 180.155 206.453 180.091 206.016 179.994C205.467 179.873 204.947 179.858 204.441 179.844C203.59 179.82 202.778 179.797 201.924 179.272C201.098 178.765 200.274 178.252 199.451 177.741C197.398 176.464 195.346 175.187 193.246 173.978C186.888 170.317 180.594 166.568 174.697 162.192C171.428 159.767 168.069 157.421 164.705 155.071C157.458 150.011 150.183 144.93 143.712 138.988C134.245 130.294 124.31 121.668 113.075 115.309C112.907 115.213 112.668 115.107 112.401 114.989C111.474 114.577 110.209 114.015 110.363 113.226C110.493 112.562 111.604 111.7 112.443 111.048C112.73 110.825 112.986 110.627 113.159 110.47C113.996 109.711 114.845 108.967 115.695 108.223C117.243 106.867 118.79 105.511 120.262 104.069C124.47 99.9476 128.646 95.3984 132.021 90.5619C133.498 88.445 134.325 86.1147 135.174 83.7202C135.268 83.4532 135.363 83.1857 135.459 82.9173C136.305 80.5559 137.087 77.649 135.714 75.3131C135.078 74.2309 134.201 73.7921 132.973 73.8741C132.811 73.8849 132.676 73.8992 132.562 73.9115C131.96 73.9757 131.938 73.9778 131.6 73.0722C131.547 72.9294 131.495 72.7839 131.442 72.6372C131.067 71.591 130.671 70.4836 129.651 69.8947C128.548 69.2576 127.767 69.8259 126.894 70.4609C126.814 70.5196 126.732 70.5786 126.65 70.6372C126.467 70.3726 126.276 70.0762 126.077 69.7648C125.054 68.1712 123.781 66.1869 121.888 66.057C119.539 65.8961 118.2 68.7793 117.382 70.5381L117.367 70.5695C114.955 75.7607 111.816 80.6097 108.44 85.2325C104.781 90.2436 101.04 95.3408 97.0079 100.059C96.8239 100.275 96.6344 100.512 96.4382 100.757C95.7253 101.647 94.9259 102.647 93.9826 103.122C92.7489 103.744 91.7249 103.16 90.6822 102.444C90.1103 102.052 89.542 101.657 88.9747 101.263C87.1032 99.9629 85.239 98.6681 83.2756 97.4839C81.1059 96.1748 78.8895 94.9502 76.6723 93.7252C75.9937 93.3502 75.315 92.9749 74.6374 92.5976C74.1315 92.3158 73.6358 92.0111 73.1401 91.7059C72.386 91.2423 71.6313 90.7784 70.8385 90.3933C70.1392 90.0536 69.4043 89.8121 68.6691 89.5701C68.1172 89.3886 67.5649 89.2071 67.0277 88.9836C71.3373 87.6989 75.8624 89.1938 79.9975 90.5595C80.2779 90.6524 80.5568 90.7442 80.8333 90.8349C83.0941 91.5747 85.4586 92.3451 87.8723 92.1462C89.9599 91.9744 91.8545 90.8566 93.5057 89.6358C96.4905 87.4287 96.7248 84.114 95.7515 80.7637C95.0931 78.4959 94.2291 76.2794 93.3661 74.0644C92.7614 72.513 92.1571 70.9622 91.6241 69.3955C91.0355 67.6653 90.6298 65.828 91.97 64.3331C93.1692 62.9954 94.721 62.8309 96.3575 63.3574C96.5202 63.4097 96.6819 63.4618 96.8431 63.5138C100.616 64.7304 104.021 65.8283 108.101 65.7121C111.427 65.6175 115.657 64.6735 117.898 61.9708C119.126 60.4892 119.173 58.4521 119.178 56.6145C119.184 54.4364 119.046 52.2461 118.742 50.0901C118.625 49.2624 118.467 48.4339 118.311 47.6069C117.738 44.5903 117.168 41.587 118.556 38.6556C118.971 37.7797 120.126 35.7392 121.269 35.617C122.503 35.485 122.793 36.9638 122.976 37.8917C122.998 38.0041 123.018 38.1085 123.038 38.2007C123.227 38.0816 123.409 38.045 123.57 38.0125C123.863 37.9532 124.089 37.9078 124.167 37.4002C125.347 38.6364 126.362 40.0003 127.379 41.3656C127.815 41.9521 128.252 42.5386 128.702 43.1157C129.343 43.9368 130.143 44.6828 130.945 45.4296C131.941 46.3575 132.938 47.2857 133.626 48.3589C134.327 49.4512 133.794 50.9195 133.294 52.2964C133.042 52.9918 132.798 53.6635 132.726 54.2517C132.483 56.2273 132.999 58.4881 134.348 59.9945C134.98 60.6986 135.751 61.1881 136.684 61.3773C137.181 61.4778 137.664 61.3689 138.131 61.2635C138.537 61.172 138.931 61.0833 139.311 61.1371C139.886 61.2184 139.995 61.5532 140.158 62.0594C140.188 62.1498 140.219 62.2458 140.255 62.3467C140.579 63.26 140.992 64.1223 141.757 64.7639C142.077 65.032 142.406 65.2286 142.727 65.4206C143.263 65.7411 143.775 66.0476 144.183 66.6498C144.324 66.8578 144.45 67.0642 144.573 67.2656C144.947 67.8786 145.294 68.448 145.958 68.8868C146.262 69.0872 146.612 69.2516 146.964 69.4164C147.976 69.8912 148.994 70.3681 148.899 71.7174L149.506 71.2345C149.976 72.7437 150.622 74.2051 151.312 75.6242C151.636 76.2892 151.802 76.6425 151.785 77.3823C151.781 77.5418 151.75 77.6884 151.72 77.8305C151.659 78.122 151.601 78.3929 151.795 78.7102C152.047 79.1204 152.526 79.2775 153.003 79.4336C153.403 79.5645 153.8 79.6947 154.058 79.9733C154.336 80.2749 154.341 80.6279 154.347 80.9742C154.352 81.347 154.358 81.7115 154.705 81.9943C154.423 82.0808 153.643 82.7113 153.936 83.0943C154.191 83.4266 154.303 83.2831 154.418 83.1376C154.493 83.0419 154.568 82.9452 154.685 82.9812C155.052 83.0936 155.179 83.3917 155.301 83.6787C155.406 83.9241 155.507 84.1615 155.751 84.2676C155.862 84.3158 155.852 83.7939 155.846 83.6713C157.439 86.8112 159.174 89.8749 160.909 92.9383C163.167 96.9247 165.424 100.91 167.366 105.06C173.476 118.122 180.74 130.84 188.773 142.82C189.404 143.76 190.055 144.698 190.707 145.639C192.016 147.525 193.331 149.42 194.5 151.36C195.61 153.202 196.893 154.912 198.177 156.624C198.929 157.628 199.683 158.632 200.402 159.664C201.356 161.033 202.272 162.428 203.187 163.823ZM155.845 83.6682C155.844 83.635 155.845 83.641 155.846 83.6713C155.846 83.6703 155.845 83.6692 155.845 83.6682ZM25.8251 73.1808C25.8063 73.421 25.7871 73.6667 25.8688 73.9453C25.9518 74.2302 26.1892 74.4442 26.4245 74.6561C26.5928 74.808 26.76 74.9584 26.8686 75.1333C27.7424 73.8469 27.712 71.0918 27.1789 69.7163C26.9272 69.0666 26.4511 68.2207 26.074 67.6503C26.015 67.5613 25.9183 67.4642 25.8248 67.3703C25.7214 67.2666 25.6223 67.1671 25.5814 67.0862C25.5165 66.957 25.4868 66.7814 25.4568 66.6033C25.4247 66.4145 25.3926 66.2232 25.3168 66.0832C24.893 65.2956 23.9654 65.1012 23.1503 65.1944C23.0627 65.2045 22.974 65.2143 22.8839 65.224C22.1368 65.3057 21.3203 65.3951 20.6535 65.7194C20.4461 65.8203 20.2698 65.9439 20.1009 66.0622C19.7078 66.3377 19.3562 66.5841 18.7544 66.4459C18.9701 66.8177 18.8043 67.09 18.6315 67.3742C18.5317 67.5386 18.429 67.7069 18.3969 67.901C18.2838 68.5803 18.503 69.1892 18.9516 69.7048C19.7832 70.6606 20.982 70.7444 22.1505 70.8261C22.2877 70.8355 22.4245 70.8453 22.5603 70.8561C23.6519 70.9441 24.995 71.1249 25.6366 72.1478C25.8761 72.5301 25.851 72.8502 25.8251 73.1808ZM30.8243 70.153C31.3556 71.0638 32.553 73.4957 32.4616 74.6348V77.5425C32.3642 78.5577 30.6487 80.2931 29.763 81.1892C29.6628 81.2905 29.5734 81.3809 29.498 81.4584C27.6534 83.3571 25.6499 83.6001 22.916 83.3578C20.6004 83.1526 17.6009 82.3807 16.0335 80.5399C14.5288 78.7738 14.5501 76.0368 14.7729 73.8619C15.0836 70.8243 16.4161 68.0574 18.1916 65.6011C19.2316 64.1624 22.0772 60.8128 24.2496 61.5455C24.5701 61.6538 24.8155 61.9407 25.0348 62.1966C25.0749 62.2437 25.1143 62.2898 25.1531 62.3338C25.3304 62.5639 25.506 62.795 25.6806 63.0275C25.7888 63.3329 25.9836 63.423 26.2643 63.298C26.5191 63.651 26.8089 63.9749 27.0983 64.2982C27.674 64.942 28.2479 65.5833 28.5394 66.4459C28.8162 67.2656 29.3912 68.0696 29.9491 68.8505C30.2654 69.2925 30.5761 69.7271 30.8243 70.153Z" fill="#EEA734"/>
<path fill-rule="evenodd" clip-rule="evenodd" d="M127.181 237.639C128.762 237.02 130.711 237.309 132.368 237.339C134.449 237.376 136.536 237.534 138.611 237.697C142.595 238.009 146.559 237.877 150.547 238.25C152.526 238.435 154.508 238.605 156.489 238.774C158.223 238.922 160.238 239.382 161.97 239.051C162.685 238.914 164.615 238.241 164.257 237.194C163.981 236.386 161.808 235.888 161.101 235.659C159.436 235.117 157.717 234.729 156.034 234.247C155.17 233.999 154.309 233.733 153.399 233.819C152.626 233.892 151.812 234.468 151.03 234.402C149.872 234.304 149.276 232.85 148.427 232.209C147.075 231.188 146.073 231.734 145.036 232.859C144.27 233.691 143.54 234.949 142.283 235.024C140.684 235.118 140.372 233.747 141.078 232.584C141.728 231.513 143.498 230.415 143.593 229.079C143.653 228.236 142.304 225.977 141.527 225.656C140.22 225.116 138.374 226.546 137.192 226.985C135.13 227.751 133.024 228.429 130.935 229.121C129.507 229.594 127.387 229.636 127.117 231.31C126.779 233.406 127.191 235.534 127.181 237.639ZM45.4245 205.419C45.8399 204.499 46.2759 203.975 45.4458 203.121C44.9815 202.644 44.3266 202.409 43.8696 201.913C43.1829 201.169 42.107 199.134 43.5788 198.621C44.9857 198.131 46.1709 200.089 47.303 200.52C48.7399 201.065 49.6301 200.15 49.8357 198.777C50.0997 197.013 49.8092 195.169 50.0201 193.383C50.226 191.632 50.8377 190.178 51.3069 188.502C51.6252 187.365 52.0145 186.221 50.571 185.969C49.2472 185.737 47.7118 186.287 46.3695 186.361C44.2759 186.476 42.1572 186.582 40.0811 186.895C37.7631 187.246 37.8053 189.616 37.2234 191.554C35.8123 196.252 33.9201 200.862 33.039 205.705C32.6592 207.793 33.666 209.223 34.8383 210.866C36.3056 212.921 37.8322 214.972 39.4943 216.877C40.6041 218.149 41.8546 219.333 43.4706 219.918C45.3012 220.58 46.0008 219.845 45.5788 218.04C45.0209 215.658 44.1796 213.357 44.2787 210.877C44.315 209.973 44.5776 209.003 43.9261 208.247C43.4744 207.722 42.7004 207.546 42.1108 207.226C41.1389 206.7 39.6332 205.006 41.5267 204.642C42.8128 204.394 44.1796 205.259 45.4245 205.419ZM89.1538 112.112C90.3093 113.403 91.5654 114.637 92.6609 115.977C93.2889 116.746 93.734 117.67 94.4082 118.399C95.8845 119.994 97.3556 118.226 98.663 117.192C103.805 113.128 108.643 108.723 113.542 104.372C115.876 102.299 118.359 100.387 120.656 98.2746C122.983 96.1349 124.92 93.6301 127.1 91.3501C128.147 90.2553 129.4 89.1693 130.046 87.7708C130.598 86.5782 130.719 85.281 131.348 84.1017C132.436 82.0595 134.43 79.6887 133.973 77.2188C132.626 78.6309 130.383 83.6912 128.032 81.318C126.355 79.6241 128.068 77.1203 127.993 75.1455C126.401 75.8213 126.815 78.5618 125.117 79.0467C124.198 79.3092 123.413 78.4777 122.984 77.7487C122.244 76.4885 122.516 75.1696 122.852 73.8325C123.081 72.9213 124.544 69.9166 123.097 69.5459C121.843 69.2243 120.793 71.5302 120.377 72.3471C119.616 73.8454 119.026 75.3947 118.19 76.8606C116.748 79.3878 115.088 81.8022 113.504 84.2424C110.243 89.2677 106.524 93.9848 102.699 98.5912C98.6135 103.511 94.191 108.15 89.1538 112.112ZM125.378 128.097C125.214 132.524 121.41 135.881 118.119 138.342C113.913 141.488 110.033 145.063 105.016 146.853C103.085 147.543 100.674 147.344 99.8999 149.518C99.5976 150.368 99.872 150.68 100.2 151.535C100.712 152.874 101.021 154.325 101.264 155.733C102.091 160.526 101.287 165.406 98.4071 169.396C96.8763 171.517 94.9203 173.321 92.8979 174.964C90.8805 176.605 88.9723 178.518 86.7482 179.875C82.0045 182.768 76.7348 184.429 71.2651 185.229C68.4202 185.645 65.5639 186.015 62.6908 186.162C61.2008 186.238 59.708 186.252 58.2174 186.187C57.5513 186.158 55.0744 185.595 54.593 185.977C54.2226 186.271 54.0575 188.049 53.9834 188.54C53.826 189.578 53.7021 190.601 53.4877 191.63C53.0573 193.695 52.4774 196.03 53.1117 198.114C53.2954 198.716 53.4441 199.207 54.0019 199.409C54.3556 199.538 54.9822 199.312 55.3397 199.275C56.1486 199.192 56.9121 199.159 57.7255 199.246C60.3951 199.528 63.0165 200.21 65.7143 200.024C71.4662 199.628 77.2236 199.223 82.9227 198.323C85.6949 197.886 88.3547 197.057 91.0809 196.418C93.6792 195.808 96.2762 195.192 98.7014 194.046C103.453 191.802 107.844 188.833 111.767 185.355C115.954 181.641 118.727 177.24 121.346 172.328C123.648 168.013 125.588 163.646 125.487 158.671C125.423 155.523 124.972 151.623 126.792 148.847C127.624 147.579 129.301 146.403 130.863 147.074C133.699 148.291 131.02 150.701 129.938 152.022C128.38 153.924 128.59 156.821 128.428 159.147C128.237 161.892 127.62 164.3 127.019 166.955C126.43 169.553 127.618 172.636 127.735 175.286C127.862 178.161 127.779 181.038 127.746 183.913C127.683 189.632 127.948 195.336 127.929 201.054C127.918 204.02 127.994 207 127.806 209.962C127.636 212.662 127.082 215.246 126.598 217.897C126.123 220.5 125.43 223.616 125.591 226.262C132.089 223.788 138.414 220.867 145.012 218.657C142.954 216.863 142.862 214.327 142.696 211.796C142.478 208.459 141.928 205.15 141.689 201.813C141.215 195.223 141.348 188.289 141.909 181.706C142.511 174.638 143.578 167.594 143.798 160.496C143.904 157.077 143.639 153.649 143.082 150.275C142.613 147.433 142.206 143.856 140.723 141.338C139.307 138.931 136.703 137.402 134.531 135.763C131.353 133.366 128.41 130.67 125.378 128.097ZM125.772 35.6514C126.585 36.7515 127.505 37.7667 128.477 38.7277C129.481 39.7195 129.908 39.5003 131.109 38.9847C133.497 37.9583 133.451 36.7714 132.118 34.7141C129.027 29.9419 127.854 24.2585 124.582 19.584C121.359 14.978 116.67 11.2567 111.748 8.60082C106.465 5.75078 100.741 4.84391 94.7873 4.92895C91.7445 4.97252 88.6825 5.18251 85.6589 5.52344C82.7174 5.85484 80.1012 6.82008 77.2539 7.54886C75.8205 7.9156 74.3424 8.21991 72.9488 8.72391C71.7262 9.16591 70.6269 9.84858 69.3918 10.2616C66.6876 11.1651 63.9664 12.175 61.5265 13.6527C59.1411 15.0977 56.992 16.6388 54.8255 18.4128C52.5818 20.2501 50.6331 22.3852 48.2068 23.9984C45.9981 25.4671 44.2414 27.4458 42.2386 29.1669C40.146 30.9654 38.2162 33.169 36.6463 35.4416C35.1113 37.6637 34.5272 40.5389 33.6 43.0448C32.5206 45.9615 31.4499 49.0793 31.0432 52.1717C30.2856 57.934 31.9861 64.6692 34.1485 70.0018C36.2874 75.276 39.7537 79.6768 43.8895 83.5383C45.9055 85.4217 48.1056 87.1309 50.5706 88.3901C52.6792 89.4674 55.4287 91.4042 57.7237 90.0508C58.653 89.5027 59.4075 88.8656 60.4816 88.6187C61.656 88.3492 62.8063 88.4596 63.7541 87.5987C64.5599 86.867 64.9453 85.9837 66.0031 85.5421C67.2574 85.0181 68.7407 84.9228 70.0837 84.927C73.0996 84.9371 76.1173 85.6919 78.9956 86.529C81.6335 87.296 83.8408 88.4529 86.6431 87.7519C88.7255 87.2311 92.0653 85.8462 92.5143 83.459C92.9154 81.3253 91.3671 78.567 90.5876 76.6578C89.5099 74.0193 88.5338 71.4237 87.8569 68.6497C87.3203 66.4518 86.478 62.9352 87.9924 60.9262C89.4806 58.9523 92.921 58.9761 95.0585 59.4725C96.4595 59.7979 97.7473 60.4531 99.149 60.7834C100.577 61.1199 102.054 61.2889 103.511 61.454C108.558 62.0248 115.739 60.7342 115.471 54.2841C115.231 48.5354 112.064 42.7728 113.919 37.0171C114.675 34.6712 116.219 31.9579 118.791 31.3386C120.831 30.8474 123.588 31.3624 125.387 32.4292C126.831 33.2856 128.262 35.0789 125.772 35.6514ZM24.4081 61.3287C19.3203 62.3212 15.9553 67.6844 15.0228 72.4403C14.6001 74.5953 14.451 77.1619 15.2683 79.2471C16.2101 81.651 18.8728 82.6543 21.2222 83.1584C23.9079 83.7348 26.2877 83.5096 28.4169 81.6479C29.3528 80.8289 30.1456 79.8751 30.8184 78.8331C31.5061 77.7672 32.4626 76.9908 31.7711 75.7997C30.0566 72.8484 28.5939 69.9491 27.4649 66.7024C26.9611 65.2536 26.5132 63.838 26.1788 62.346C25.9135 61.1611 25.785 60.4381 24.4081 61.3287ZM68.9701 93.5223C67.9856 94.4704 66.8545 95.2259 65.5838 95.7356C64.1898 96.2945 63.7667 96.026 63.8358 97.6385C63.9123 99.419 63.9252 100.844 63.1135 102.501C62.7337 103.277 61.3303 104.323 61.5953 105.196C61.9758 106.448 65.8732 107.714 67.0102 108.152C69.7304 109.2 72.9041 109.221 75.4718 107.741C78.4542 106.021 78.7181 102.903 77.5947 99.8857C77.4749 99.5638 77.0389 99.0199 77.1461 98.6684C77.343 98.0243 78.1532 98.1171 78.6182 98.3633C79.6278 98.8974 80.0496 100.522 80.2671 101.536C80.8476 104.244 79.7811 107.177 77.7542 109.043C76.724 109.991 75.4358 110.624 74.1218 111.081C73.3761 111.34 72.5934 111.545 71.8058 111.625C71.1694 111.689 70.3658 111.488 69.758 111.669C68.687 111.988 68.6391 113.309 68.3714 114.275C67.8931 116.001 67.6934 117.869 67.6306 119.655C67.529 122.543 67.8728 126.223 69.5342 128.671C73.4103 134.384 80.907 136.367 86.76 139.307C89.8712 140.87 92.7562 142.833 95.5263 144.932C95.8 145.139 96.2095 145.546 96.538 145.707C97.6485 146.254 96.6787 146.055 97.3895 145.694C97.9369 145.416 98.4054 144.812 98.9709 144.498C100.273 143.772 101.736 143.381 103.061 142.696C106.141 141.103 108.866 139.127 111.6 137.017C114.401 134.855 117.238 132.881 119.794 130.42C120.872 129.383 122.085 128.528 123.178 127.535C124.279 126.534 122.87 126.119 121.937 125.383C118.764 122.877 115.63 120.291 112.241 118.076C111.111 117.337 110.114 116.34 108.935 115.687C107.703 115.005 106.972 115.616 106.002 116.483C104.942 117.431 103.931 118.361 102.751 119.172C101.193 120.243 99.3808 120.759 97.814 121.779C98.8198 122.832 101.273 123.184 101.628 124.779C101.989 126.395 99.5822 127.656 98.4571 128.281C96.4707 129.383 94.2793 130.052 92.0657 130.531C90.2238 130.928 87.4931 130.33 86.0171 131.72C85.5961 130.829 85.2016 130.364 85.8942 129.513C86.5862 128.663 87.8196 128.517 88.796 128.19C91.4328 127.306 94.0301 126.129 96.5817 125.025C96.2431 124.233 95.3965 123.69 94.7513 123.174C93.83 122.437 93.0561 121.621 92.3062 120.704C90.8756 118.957 89.5926 117.092 88.2301 115.293C87.6394 114.512 87.1004 113.733 86.0213 114.165C85.0686 114.547 84.139 115.536 83.2236 116.048C81.1531 117.207 79.3419 118.32 77.063 119.057C76.1448 119.354 72.3847 120.2 73.3848 117.902C73.6812 117.22 74.672 116.94 75.2822 116.642C76.4098 116.091 77.5339 115.53 78.6203 114.901C80.8522 113.609 82.8204 111.94 84.9084 110.437C87.2118 108.78 89.5546 107.171 91.7173 105.329C89.5654 103.904 87.1782 102.86 84.9531 101.556C82.7038 100.238 80.4381 99.0472 78.1117 97.8766C76.2594 96.9445 74.3766 95.9506 72.6877 94.7462C72.0164 94.2669 69.7063 92.2763 68.9701 93.5223ZM136.631 47.1628C136.348 47.234 136.068 47.315 135.79 47.405C137.676 50.2893 135.594 53.86 136.184 56.9806C137.926 55.9507 138.154 51.9448 140.798 52.6852C143.646 53.4833 142.229 56.9886 143.091 58.9935C144.437 57.817 146.008 58.9167 146.564 60.3124C147.165 61.8247 146.331 63.2208 146.612 64.7174C146.901 66.266 147.767 65.2498 148.246 64.3365C148.858 63.1723 149.392 61.5985 149.167 60.2667C148.893 58.6472 147.805 57.1412 147.131 55.6701C146.462 54.2084 145.828 52.7167 144.859 51.4197C143.025 48.9641 139.838 46.7578 136.631 47.1628ZM154.874 81.7495C153.643 78.6756 151.82 75.8608 150.655 72.7625C150.315 71.8566 150.125 70.4123 149.224 69.8541C148.632 69.4872 147.845 69.7075 147.192 69.5102C146.541 69.3137 145.856 68.8452 145.389 68.3617C144.536 67.4774 144.259 66.2639 143.252 65.4938C141.953 64.4999 140.949 64.1187 140.331 62.458C139.845 61.1538 139.844 60.9625 138.386 61.2536C136.793 61.5713 135.5 61.1821 134.401 59.9382C132.541 57.8321 132.335 54.865 133.248 52.3229C133.675 51.1338 134.418 49.7507 133.801 48.5061C133.228 47.3495 131.836 46.5194 130.954 45.5977C128.724 43.2682 126.979 40.542 124.888 38.0976C124.387 37.5129 123.876 36.9295 123.49 36.2592C123.245 35.8333 123.101 35.1009 122.533 34.9805C121.555 34.7731 120.191 36.4631 119.699 37.0786C116.1 41.5834 118.675 47.7189 119.113 52.7973C119.337 55.3834 119.838 58.4838 118.691 60.9192C117.611 63.2138 114.875 64.3592 112.57 64.9981C109.46 65.86 106.121 65.822 102.957 65.2987C101.3 65.0246 99.7093 64.5568 98.1404 63.9641C96.5356 63.3573 94.8662 62.3138 93.2303 63.4146C91.1189 64.8358 91.7714 67.6869 92.235 69.7647C92.9925 73.1591 94.3153 76.3251 95.4855 79.5861C96.4682 82.3248 97.2638 85.7606 95.1978 88.2113C93.1343 90.6589 89.712 92.1908 86.5268 92.0637C79.9232 91.8005 73.8952 86.8767 67.1471 88.8907C68.415 89.4147 69.7552 89.723 70.9942 90.3231C72.4897 91.0471 73.8739 92.0096 75.3258 92.8153C78.1127 94.3611 80.9094 95.885 83.6331 97.5415C86.0943 99.0377 88.421 100.677 90.7698 102.336C93.6967 104.402 95.2383 102.113 97.1158 99.8812C101.215 95.0087 105.117 89.849 108.841 84.6854C112.079 80.1966 115.084 75.5096 117.426 70.4947C118.264 68.7003 119.674 65.6565 122.126 66.0105C124.303 66.3247 125.572 68.9506 126.697 70.5579C127.482 69.9955 128.155 69.2432 129.215 69.5528C130.095 69.8091 130.702 70.7112 131.092 71.4806C131.359 72.0095 131.541 73.7916 131.989 74.0598C132.307 74.2507 133.523 73.8405 134.065 73.9659C135.921 74.3945 136.514 76.7796 136.495 78.4347C136.469 80.7165 135.515 82.9992 134.734 85.112C132.983 89.8483 129.983 93.5498 126.676 97.2922C123.319 101.09 119.805 104.533 116.02 107.903C115.086 108.734 114.16 109.576 113.25 110.433C112.503 111.136 111.32 111.867 110.735 112.693C109.653 114.221 112.548 114.915 113.625 115.474C118.258 117.88 122.528 121.049 126.609 124.281C130.818 127.613 135.049 130.959 139.093 134.49C143.049 137.944 146.785 141.626 150.951 144.838C155.231 148.138 159.715 151.185 164.113 154.326C168.515 157.469 172.799 160.776 177.195 163.923C181.493 166.999 186.105 169.636 190.625 172.366C192.989 173.795 195.366 175.203 197.741 176.614C199.662 177.754 201.747 179.527 204.024 179.671C206.075 179.801 208.021 180.556 209.248 178.325C210.178 176.631 209.793 174.302 208.978 172.657C207.983 170.649 206.427 168.803 205.177 166.945C203.739 164.808 202.405 162.61 200.985 160.462C199.625 158.403 198.113 156.502 196.595 154.562C195.056 152.594 193.888 150.376 192.517 148.293C189.585 143.84 186.571 139.467 183.792 134.914C177.418 124.472 171.709 113.692 166.254 102.75C165.774 101.786 154.56 81.9209 154.874 81.7495ZM145.899 145.95C149.325 157.79 147.35 169.831 146.647 181.877C146.292 187.967 146.238 194.096 146.081 200.195C146.004 203.159 146.009 206.126 146.132 209.09C146.194 210.58 146.303 212.066 146.41 213.554C146.503 214.87 146.15 216.324 146.316 217.594C146.529 219.22 149.757 219.539 148.766 221.626C148.1 223.026 145.77 223.24 144.522 223.83C145.077 224.473 145.945 225.435 146.871 225.495C147.704 225.55 148.348 224.827 149.096 224.553C149.759 224.31 150.672 224.075 151.091 224.85C151.53 225.661 150.611 226.562 150.248 227.19C151.483 227.429 152.338 226.692 153.453 226.76C154.625 226.831 154.678 227.985 155.449 228.652C156.33 229.416 157.869 229.58 158.956 229.901C160.22 230.275 161.49 230.738 162.641 231.387C164.699 232.546 166.467 234.737 167.227 236.979C168.015 239.302 166.785 241.313 164.951 242.739C164.268 243.27 163.289 243.888 162.383 243.601C161.348 243.274 161.186 242.431 159.925 242.494C158.791 242.55 157.716 243.003 156.577 243.061C154.902 243.146 153.23 242.841 151.554 242.905C144.79 243.165 138.026 243.223 131.274 242.572C129.527 242.404 127.815 242.267 126.092 242.212C124.753 242.169 124.641 241.17 124.414 239.916C123.866 236.888 125.078 233.907 124.478 230.964C124.518 231.158 123.57 230.653 123.456 230.557C122.76 229.971 122.527 229.139 122.32 228.274C121.768 225.971 121.773 223.624 121.944 221.275C122.332 215.944 123.324 210.662 123.243 205.303C123.202 202.601 123.284 199.906 123.284 197.206C123.285 194.725 123.509 192.278 123.53 189.814C123.576 184.414 124.145 179.073 124.303 173.679C123.179 174.772 122.583 176.297 121.869 177.662C120.991 179.339 120.011 181 118.938 182.561C116.724 185.786 113.752 188.41 110.674 190.789C104.799 195.328 98.4166 198.844 91.2191 200.769C83.4275 202.853 75.5475 204.261 67.515 205.051C65.6564 205.234 63.7772 205.333 61.9147 205.152C60.6949 205.033 58.7124 204.048 57.5534 204.548C56.2362 205.116 55.9712 206.483 54.2442 206.1C53.5851 205.953 53.1079 205.513 52.5308 205.216C51.6822 204.78 51.6483 205.081 50.838 205.137C49.9345 205.199 49.3931 204.748 48.6055 205.475C47.937 206.093 48.0019 206.526 48.6125 207.104C49.4709 207.916 50.845 208.052 51.7041 208.901C52.5402 209.726 52.3905 210.741 51.0991 210.753C49.7998 210.766 48.645 209.841 47.3753 209.72C47.6458 213.476 48.7762 217.673 47.5229 221.359C46.9413 223.068 45.694 224.17 43.8336 224.158C40.7203 224.138 37.9896 221.274 36.1146 219.043C35.0781 217.81 34.2378 216.424 33.2373 215.161C32.2141 213.869 31.1168 212.57 30.531 211.008C29.9079 209.346 30.0898 207.678 30.4382 205.971C30.8693 203.859 31.2701 201.726 31.7913 199.634C32.802 195.578 34.8348 191.875 35.8612 187.831C36.2494 186.301 36.2445 184.505 37.2244 183.194C38.2616 181.804 39.8755 181.715 41.4761 181.804C43.4573 181.914 45.4371 182.133 47.4077 182.357C48.6523 182.499 51.3791 183.396 52.3919 182.632C52.7406 182.368 52.7413 181.678 53.1491 181.44C53.5422 181.21 54.1768 181.375 54.6066 181.407C56.7344 181.565 58.8807 181.757 61.0126 181.819C68.9373 182.051 77.2997 180.815 84.375 177.134C87.6583 175.426 90.1596 172.736 92.7985 170.196C95.3933 167.698 97.6548 165.01 98.353 161.384C98.9905 158.073 98.7493 154.114 97.6904 150.91C96.6592 147.788 92.9988 145.897 90.3348 144.358C86.6406 142.224 82.7188 140.455 78.7387 138.923C78.1068 138.68 77.3388 138.37 76.6441 138.494C75.7919 138.647 75.2197 139.385 74.4447 139.711C73.5234 140.098 72.3934 140.1 71.4211 140.326C70.4786 140.546 69.5597 140.847 68.5997 140.992C65.5761 141.448 61.3272 141.084 58.8283 139.153C54.7438 135.996 57.2116 131.529 58.5239 127.687C57.1365 127.64 55.9814 127.964 54.6572 127.371C53.3379 126.779 52.3064 125.732 51.7048 124.42C50.6108 122.032 51.2426 119.29 51.5656 116.8C51.7115 115.675 51.878 114.558 52.3074 113.501C52.6401 112.682 53.1861 111.902 53.3879 111.036C53.6099 110.083 53.3219 110.027 52.5266 109.571C51.3002 108.868 50.4177 108.06 49.6671 106.826C48.1971 104.409 48.1608 101.771 49.3652 99.228C49.8529 98.1992 51.0161 96.7843 50.8838 95.5827C50.7699 94.5486 49.5998 93.7432 48.9106 93.0663C46.7825 90.9756 44.52 89.0454 42.16 87.2216C41.0572 86.3691 39.8423 85.5955 38.84 84.6271C38.1055 83.9177 37.3595 82.3743 36.3551 82.0012C35.3497 81.628 34.6801 82.7507 33.9798 83.3525C32.8882 84.2906 31.8419 85.37 30.6522 86.1831C28.5185 87.6416 25.873 87.3686 23.4631 86.9029C20.9461 86.4159 18.6116 85.5589 16.4653 84.1447C15.6128 83.5826 14.6168 82.4414 13.5671 82.3499C12.4458 82.2525 11.2274 83.3672 10.4259 84.0364C8.33369 85.7837 7.70565 88.4976 6.48693 90.845C5.12613 93.4664 4.54801 96.1873 4.91841 99.1341C5.25146 101.785 6.27258 103.788 7.79153 105.93C8.10572 106.373 8.84128 107.21 8.30366 107.699C7.64595 108.299 6.29841 107.097 5.8568 106.709C1.47032 102.851 -1.02263 97.0377 0.401365 91.2185C1.16555 88.0941 2.66076 85.2031 4.3972 82.5147C5.13555 81.371 5.85575 80.2277 7.13975 79.6444C8.60145 78.9807 10.2576 79.0596 11.8188 78.9004C10.739 73.6143 10.4011 67.8621 13.7193 63.255C16.2657 59.7197 21.4806 56.6263 25.6132 59.4931C25.4439 55.5961 24.8885 51.8952 25.9257 48.0579C26.3903 46.3385 27.0271 44.6653 27.8098 43.0646C28.5764 41.4965 29.6353 40.1664 30.2546 38.534C32.6983 32.0944 37.3871 26.3423 42.395 21.7205C47.4573 17.0487 52.4247 11.3493 58.8014 8.42655C65.4539 5.37689 72.229 2.63639 79.4421 1.25073C86.9286 -0.187607 94.6239 -0.482843 102.166 0.878938C108.777 2.0728 114.896 6.08686 119.899 10.4143C125.607 15.3524 129.293 21.3054 132.208 28.2012C132.848 29.716 133.466 31.2437 134.251 32.6914C135.123 34.2976 136.242 35.7914 136.883 37.515C137.454 39.0521 137.551 40.7197 136.533 42.0931C135.817 43.0587 134.349 43.2766 133.723 44.1598C133.407 44.6052 133.439 45.0291 134.133 45.1617C134.85 45.2986 135.192 44.4988 135.708 44.1779C136.991 43.3792 138.802 44.0599 140.099 44.5134C143.176 45.589 145.584 47.5209 147.425 50.1986C149.187 52.7613 150.357 55.6729 151.52 58.5386C152.255 60.3466 152.953 62.1428 153.357 64.0583C153.509 64.7789 153.721 66.7324 152.582 65.8764C152.12 65.5294 151.461 68.1631 151.585 68.5823C152.018 70.0409 153.563 71.4083 154.471 72.5893C156.609 75.3654 158.04 78.4752 159.547 81.6151C162.813 88.4142 166.449 95.0147 169.943 101.696C177.057 115.302 184.832 128.386 192.987 141.392C197.027 147.835 201.193 154.168 205.512 160.429C207.418 163.191 209.33 165.956 211.194 168.746C212.778 171.118 214.342 173.758 213.934 176.718C213.561 179.428 211.951 181.605 209.348 182.491C207.953 182.966 206.296 183.514 204.803 183.368C203.17 183.208 201.729 182.116 200.369 181.296C194.114 177.527 187.859 173.761 181.6 169.999C174.601 165.791 168.2 160.795 161.523 156.117C158.125 153.737 154.621 151.591 151.081 149.437C150.283 148.951 146.666 145.475 145.899 145.95Z" fill="#3A3A3A"/>
<path fill-rule="evenodd" clip-rule="evenodd" d="M85.2966 157.928C83.587 160.445 81.7892 162.811 79.3828 164.721C76.8476 166.733 74.1965 168.363 71.366 169.924C66.3742 172.677 59.6829 175.115 53.885 173.867C52.2362 173.512 49.5984 172.069 51.0318 170.01C51.7523 168.975 53.2978 169.244 54.3919 169.301C56.1545 169.393 57.6958 169.494 59.3848 168.901C62.488 167.811 65.6124 166.783 68.6426 165.5C71.5775 164.256 74.1515 162.552 76.8441 160.877C79.3695 159.306 81.2959 157.427 83.5144 155.528C84.1219 155.008 85.1664 154.098 85.741 155.109C86.1564 155.84 85.5242 157.214 85.2966 157.928Z" fill="#3A3A3A"/>
<path fill-rule="evenodd" clip-rule="evenodd" d="M154.377 37.029C154.186 38.1192 153.67 40.2885 152.135 39.9922C150.179 39.6144 151.143 35.7834 151.113 34.483C150.983 28.8163 149.135 23.3675 146.4 18.4544C145.039 16.0119 143.364 13.7532 142.127 11.2407C141.887 10.7525 141.158 9.54182 141.688 9.01223C142.324 8.37624 143.543 9.33599 143.991 9.78986C145.723 11.545 147.103 14.1762 148.44 16.2414C150.226 18.9985 151.803 21.9107 152.936 25.0024C154.303 28.7367 155.071 33.068 154.377 37.029Z" fill="#3A3A3A"/>
<path fill-rule="evenodd" clip-rule="evenodd" d="M158.038 18.9078C158.221 19.8905 159.116 22.5643 157.521 22.8013C155.713 23.0701 155.151 18.6152 154.649 17.4349C154.384 16.8127 152.974 14.0724 153.709 13.4758C155.24 12.2339 157.676 18.1171 158.038 18.9078Z" fill="#3A3A3A"/>
<path fill-rule="evenodd" clip-rule="evenodd" d="M72.9442 151.507C71.228 153.071 69.2357 152.979 67.0695 152.831C65.9695 152.755 63.4221 152.103 65.1924 150.739C66.1172 150.027 73.3726 149.536 72.9442 151.507Z" fill="#3A3A3A"/>
<path fill-rule="evenodd" clip-rule="evenodd" d="M206.669 180.137C206.791 179.895 207.821 178.73 208.043 179.201C208.252 179.645 206.941 180.124 206.669 180.137Z" fill="#3A3A3A"/>
<path fill-rule="evenodd" clip-rule="evenodd" d="M70.1696 93.6966C69.9584 94.1319 69.0769 93.7517 68.7732 93.8177C69.1858 92.9341 69.6763 93.1233 70.1696 93.6966Z" fill="#3A3A3A"/>
<path fill-rule="evenodd" clip-rule="evenodd" d="M136.499 47.4781C136.407 47.8272 136.316 48.1763 136.224 48.5254C136.083 48.2639 135.942 48.0025 135.801 47.7406C136.034 47.6534 136.267 47.5657 136.499 47.4781Z" fill="#3A3A3A"/>
<path fill-rule="evenodd" clip-rule="evenodd" d="M138.185 113.436C140.387 113.658 142.597 113.77 144.808 113.838C146.675 113.896 147.441 113.543 147.68 111.603C147.962 109.303 148.059 106.982 148.341 104.681C148.469 103.636 149.483 101.547 148.262 100.988C147.238 100.519 145.642 101.191 144.57 101.27C143.375 101.357 141.573 100.993 140.518 101.701C139.389 102.458 139.635 105.109 139.442 106.352C139.076 108.724 138.634 111.079 138.185 113.436ZM137.134 102.265C135.138 102.416 133.135 102.535 131.144 102.748C130.258 102.843 128.465 103.281 127.718 102.636C125.966 101.124 132.517 100.593 133.26 100.473C134.512 100.272 136.656 100.539 137.459 99.3568C138.253 98.1873 138.052 96.2222 138.258 94.8645C138.566 92.8212 138.92 90.7807 139.126 88.7241C139.195 88.0329 139.096 85.7494 139.826 85.4101C141.504 84.6302 140.977 92.6669 140.949 93.2702C140.902 94.3073 140.85 95.3494 140.706 96.3779C140.624 96.9577 140.338 97.7418 140.514 98.3241C141.02 99.9939 143.894 99.0311 145.203 98.8977C146.67 98.7483 148.936 99.3166 149.421 97.5065C150.031 95.2318 149.943 92.6484 150.169 90.308C150.231 89.6608 150.395 84.8271 151.588 85.2017C152.92 85.6203 152.4 89.6594 152.387 90.6994C152.374 91.8731 152.378 93.0474 152.299 94.219C152.228 95.2716 151.931 96.5615 152.15 97.6043C152.536 99.4325 154.703 98.4603 155.332 99.9146C155.93 101.297 152.671 100.213 152.063 100.688C151.154 101.397 151.373 104.359 151.243 105.397C150.958 107.675 150.411 110.041 150.233 112.313C150.093 114.106 151.534 113.868 153.001 113.738C154.259 113.627 155.641 113.328 156.902 113.496C157.916 113.63 159.331 114.564 157.856 115.185C155.55 116.156 150.854 114.172 149.696 117.122C149.477 117.678 148.46 124.133 147.182 120.947C146.648 119.615 147.956 117.525 146.561 116.505C146.078 116.151 145.358 116.214 144.797 116.174C143.415 116.078 142.025 116.045 140.641 116.017C139.261 115.988 138.021 115.71 137.488 117.222C137.073 118.4 137.119 119.717 136.787 120.923C136.538 121.826 135.721 123.408 134.874 121.93C134.318 120.959 134.743 119.263 134.853 118.207C134.908 117.678 135.223 116.585 134.822 116.141C134.392 115.664 133.24 115.922 132.695 115.965C131.123 116.09 128.196 116.846 126.992 115.42C125.986 114.228 128.078 114.205 128.901 114.124C129.749 114.041 130.597 113.964 131.444 113.875C132.376 113.777 133.611 113.908 134.488 113.616C135.962 113.125 135.857 111.121 135.954 109.821C136.143 107.282 136.714 104.774 137.134 102.265Z" fill="#3A3A3A"/>
<path fill-rule="evenodd" clip-rule="evenodd" d="M163.031 107.688C162.912 109.154 162.753 110.798 162.28 112.191C161.922 113.244 161.199 113.564 160.952 112.223C160.796 111.373 161.834 106.584 163.031 107.688Z" fill="#3A3A3A"/>
<path fill-rule="evenodd" clip-rule="evenodd" d="M69.9699 98.0358C69.382 97.6138 66.5979 95.3938 68.6102 95.3062C69.6376 95.2612 71.8512 96.9512 71.9148 97.8889C71.9308 98.1256 71.4246 98.2481 71.4522 98.4771C71.5046 98.9131 72.1501 99.1195 72.3581 99.4661C72.8165 100.231 72.6262 101.741 72.0342 102.468C70.6838 104.126 69.1844 101.319 70.2296 100.769C69.9968 100.891 66.8709 99.3027 66.7536 98.9439C66.1106 96.9774 69.8118 98.83 69.9699 98.0358Z" fill="#3A3A3A"/>
<path fill-rule="evenodd" clip-rule="evenodd" d="M74.8769 105.774C74.163 105.796 72.7289 105.747 72.194 105.237C71.1998 104.289 73.1391 104.164 73.7064 103.722C74.5016 103.104 74.6577 101.092 75.906 102.337C77.1443 103.571 76.0555 105.008 74.8769 105.774Z" fill="#3A3A3A"/>
<path fill-rule="evenodd" clip-rule="evenodd" d="M64.5839 100.551C65.8749 100.362 68.747 103.145 67.3533 103.33C66.431 103.452 64.7853 101.294 64.5839 100.551Z" fill="#3A3A3A"/>
</svg>
