<svg width="244" height="28" viewBox="0 0 244 28" fill="none" xmlns="http://www.w3.org/2000/svg">
<path d="M10.0304 21.9259C15.2292 21.9259 18.8566 18.93 19.3559 14.2012H15.0383C14.5683 16.7125 12.6739 18.2545 10.0451 18.2545C6.65269 18.2545 4.52325 15.4642 4.52325 10.9409C4.52325 6.47644 6.68207 3.67145 10.0304 3.67145C12.6151 3.67145 14.6124 5.37501 15.0236 7.97439H19.3412C19.0035 3.23088 15.1264 0 10.0304 0C3.89176 0 2.29466e-05 4.12671 2.29466e-05 10.9556C2.29466e-05 17.7992 3.86239 21.9259 10.0304 21.9259ZM22.1586 21.5588H26.4469V12.5711C26.4469 10.5004 27.6364 9.07583 29.6631 9.07583C31.6163 9.07583 32.6149 10.3094 32.6149 12.3361V21.5588H36.9032V11.4256C36.9032 7.78348 34.9059 5.52186 31.4107 5.52186C29.0169 5.52186 27.2987 6.63799 26.4616 8.62057H26.3735V0.367145H22.1586V21.5588ZM47.1957 21.8965C51.9539 21.8965 54.9938 18.8566 54.9938 13.6725C54.9938 8.56183 51.9098 5.47781 47.1957 5.47781C42.4815 5.47781 39.3975 8.57651 39.3975 13.6725C39.3975 18.8419 42.4375 21.8965 47.1957 21.8965ZM47.1957 18.6216C45.0809 18.6216 43.7445 16.8446 43.7445 13.6872C43.7445 10.5591 45.1103 8.75274 47.1957 8.75274C49.2811 8.75274 50.6321 10.5591 50.6321 13.6872C50.6321 16.8446 49.2957 18.6216 47.1957 18.6216ZM64.7576 21.8965C69.5158 21.8965 72.5558 18.8566 72.5558 13.6725C72.5558 8.56183 69.4718 5.47781 64.7576 5.47781C60.0435 5.47781 56.9595 8.57651 56.9595 13.6725C56.9595 18.8419 59.9994 21.8965 64.7576 21.8965ZM64.7576 18.6216C62.6429 18.6216 61.3065 16.8446 61.3065 13.6872C61.3065 10.5591 62.6722 8.75274 64.7576 8.75274C66.843 8.75274 68.1941 10.5591 68.1941 13.6872C68.1941 16.8446 66.8577 18.6216 64.7576 18.6216ZM74.8298 10.4416C74.8298 12.762 76.3571 14.3187 79.3384 14.9942L82.2462 15.6404C83.656 15.9782 84.1847 16.4187 84.1847 17.2118C84.1847 18.2398 83.2007 18.8859 81.5706 18.8859C79.867 18.8859 78.8244 18.1223 78.6188 16.8006H74.4333C74.6683 19.8699 77.253 21.8965 81.4531 21.8965C85.6092 21.8965 88.4582 19.8552 88.4582 16.7565C88.4582 14.4068 87.1806 13.1585 84.0231 12.4536L81.0125 11.8074C79.6321 11.4843 78.9565 10.9556 78.9565 10.1773C78.9565 9.16394 79.9258 8.4884 81.4091 8.4884C82.9951 8.4884 84.0084 9.26675 84.0966 10.5297H88.047C87.9883 7.47508 85.4183 5.47781 81.4678 5.47781C77.4292 5.47781 74.8298 7.44571 74.8298 10.4416ZM97.9871 8.64994C99.8962 8.64994 101.203 10.0304 101.291 12.0424H94.6093C94.7562 10.0745 96.1073 8.64994 97.9871 8.64994ZM101.35 16.7418C100.954 17.9461 99.7494 18.7244 98.178 18.7244C95.9898 18.7244 94.5653 17.1824 94.5653 14.9355V14.6711H105.418V13.3641C105.418 8.57651 102.525 5.47781 97.943 5.47781C93.2876 5.47781 90.3504 8.73806 90.3504 13.7606C90.3504 18.7978 93.2582 21.8965 98.1046 21.8965C101.996 21.8965 104.816 19.8258 105.286 16.7418H101.35ZM116.252 27.389C120.276 27.389 122.243 25.9498 123.595 21.9112L129.014 5.81558H124.49L121.142 18.1223H121.069L117.72 5.81558H113.006L118.484 21.5735C118.513 21.6322 118.352 22.2637 118.352 22.3224C118.058 23.5707 117.28 24.07 115.708 24.07C115.547 24.07 114.768 24.07 114.636 24.0407V27.345C114.768 27.3743 116.105 27.389 116.252 27.389ZM137.676 21.8965C142.434 21.8965 145.474 18.8566 145.474 13.6725C145.474 8.56183 142.39 5.47781 137.676 5.47781C132.962 5.47781 129.878 8.57651 129.878 13.6725C129.878 18.8419 132.918 21.8965 137.676 21.8965ZM137.676 18.6216C135.561 18.6216 134.225 16.8446 134.225 13.6872C134.225 10.5591 135.591 8.75274 137.676 8.75274C139.761 8.75274 141.112 10.5591 141.112 13.6872C141.112 16.8446 139.776 18.6216 137.676 18.6216ZM162.551 5.81558H158.263V14.8327C158.263 16.9181 157.074 18.2838 155.165 18.2838C153.27 18.2838 152.227 17.1677 152.227 15.0676V5.81558H147.939V15.9635C147.939 19.6349 150.201 21.8525 153.608 21.8525C155.987 21.8525 157.544 20.707 158.322 18.7244H158.41V21.5588H162.551V5.81558ZM165.663 21.5588H169.951V12.762C169.951 10.5444 171.184 9.25206 173.299 9.25206C173.916 9.25206 174.503 9.35486 174.856 9.50172V5.72747C174.562 5.63935 174.136 5.56592 173.637 5.56592C171.787 5.56592 170.45 6.65267 169.892 8.64994H169.804V5.81558H165.663V21.5588ZM184.368 21.5588H188.656V9.04646H191.681V5.88901H188.553V4.84632C188.553 3.7302 189.17 3.11339 190.58 3.11339C191.006 3.11339 191.432 3.14276 191.74 3.20151V0.367145C191.241 0.264345 190.345 0.17623 189.552 0.17623C185.822 0.17623 184.368 1.61544 184.368 4.69946V5.88901H182.224V9.04646H184.368V21.5588ZM201.049 21.8965C205.807 21.8965 208.847 18.8566 208.847 13.6725C208.847 8.56183 205.763 5.47781 201.049 5.47781C196.334 5.47781 193.25 8.57651 193.25 13.6725C193.25 18.8419 196.29 21.8965 201.049 21.8965ZM201.049 18.6216C198.934 18.6216 197.597 16.8446 197.597 13.6872C197.597 10.5591 198.963 8.75274 201.049 8.75274C203.134 8.75274 204.485 10.5591 204.485 13.6872C204.485 16.8446 203.149 18.6216 201.049 18.6216ZM218.611 21.8965C223.369 21.8965 226.409 18.8566 226.409 13.6725C226.409 8.56183 223.325 5.47781 218.611 5.47781C213.896 5.47781 210.812 8.57651 210.812 13.6725C210.812 18.8419 213.852 21.8965 218.611 21.8965ZM218.611 18.6216C216.496 18.6216 215.159 16.8446 215.159 13.6872C215.159 10.5591 216.525 8.75274 218.611 8.75274C220.696 8.75274 222.047 10.5591 222.047 13.6872C222.047 16.8446 220.711 18.6216 218.611 18.6216ZM234.792 21.8084C237.112 21.8084 238.933 20.5895 239.697 18.8566H239.771V21.5588H244V0.367145H239.712V8.51777H239.624C238.86 6.77016 237.098 5.56592 234.821 5.56592C230.871 5.56592 228.374 8.66463 228.374 13.6578C228.374 18.695 230.856 21.8084 234.792 21.8084ZM236.246 9.0024C238.375 9.0024 239.741 10.8234 239.741 13.6872C239.741 16.5656 238.375 18.3573 236.246 18.3573C234.087 18.3573 232.765 16.5803 232.765 13.6872C232.765 10.8088 234.087 9.0024 236.246 9.0024Z" fill="#010F07"/>
</svg>
